<svg width="64" height="64" viewBox="0 0 64 64" fill="none" xmlns="http://www.w3.org/2000/svg">
<path fill-rule="evenodd" clip-rule="evenodd" d="M32 0C49.6731 0 64 14.3269 64 32C64 49.6731 49.6731 64 32 64C14.3269 64 0 49.6731 0 32C0 14.3269 14.3269 0 32 0ZM38.4156 24.7564C36.7574 23.1709 34.6483 22.3637 32.2992 22.3637C28.1319 22.3637 24.6053 25.1781 23.3471 28.9599C23.0271 29.9199 22.8453 30.9454 22.8453 31.9999C22.8453 33.0545 23.0264 34.0799 23.3464 35.0399C24.6046 38.8217 28.1319 41.6363 32.2992 41.6363C34.4519 41.6363 36.2853 41.0691 37.718 40.1091C39.4125 38.9746 40.5398 37.2801 40.9107 35.28H32.2998V29.0909H47.3689C47.558 30.1382 47.6598 31.2291 47.6598 32.3637C47.6598 37.2364 45.9144 41.3382 42.8889 44.1237C40.2416 46.5673 36.6192 47.9999 32.2992 47.9999C26.0446 47.9999 20.6337 44.4145 18.001 39.1854C16.9173 37.0254 16.2998 34.5817 16.2998 31.9999C16.2998 29.4181 16.918 26.9745 18.0016 24.8145C20.6344 19.5854 26.0446 16 32.2992 16C36.6119 16 40.2337 17.5855 43.0047 20.1673L38.4156 24.7564Z" fill="#6EC8E6"/>
</svg>
