<svg width="64" height="64" viewBox="0 0 64 64" fill="none" xmlns="http://www.w3.org/2000/svg">
<path d="M37.2 32L28.8 27.2V36.8L37.2 32Z" fill="#6EC8E6"/>
<path fill-rule="evenodd" clip-rule="evenodd" d="M0 32C0 14.3269 14.3269 0 32 0C49.6731 0 64 14.3269 64 32C64 49.6731 49.6731 64 32 64C14.3269 64 0 49.6731 0 32ZM44.4 21.4C45.8 21.8 46.8 22.8 47.2 24.2C48 26.8 48 32 48 32C48 32 48 37.2 47.4 39.8C47 41.2 46 42.2 44.6 42.6C42 43.2 32 43.2 32 43.2C32 43.2 21.8 43.2 19.4 42.6C18 42.2 17 41.2 16.6 39.8C16 37.2 16 32 16 32C16 32 16 26.8 16.4 24.2C16.8 22.8 17.8 21.8 19.2 21.4C21.8 20.8 31.8 20.8 31.8 20.8C31.8 20.8 42 20.8 44.4 21.4Z" fill="#6EC8E6"/>
</svg>
