<svg width="85" height="71" viewBox="0 0 85 71" fill="none" xmlns="http://www.w3.org/2000/svg">
<path d="M10.2 0.649902C4.58867 0.649902 0 5.23857 0 10.8499V60.1499C0 65.7612 4.58867 70.3499 10.2 70.3499H85V9.1499H20.0547C19.2113 4.37529 15.2137 0.649902 10.2 0.649902ZM10.2 4.0499C13.9719 4.0499 17 7.07803 17 10.8499V52.5796C15.1938 50.9526 12.8098 49.9499 10.2 49.9499C7.59023 49.9499 5.20625 50.9526 3.4 52.5796V10.8499C3.4 7.07803 6.42813 4.0499 10.2 4.0499ZM20.4 12.5499H81.6V66.9499H10.2C6.42813 66.9499 3.4 63.9218 3.4 60.1499C3.4 56.378 6.42813 53.3499 10.2 53.3499C13.9719 53.3499 17 56.378 17 60.1499H20.4V12.5499ZM59.5 22.7499L64.248 27.4979L55.25 36.496L45.9797 27.219L31.1844 40.1749L33.4156 42.7249L45.8203 31.8808L55.25 41.3038L66.652 29.9019L71.4 34.6499V22.7499H59.5ZM28.9 51.6499V55.0499H71.4V51.6499H28.9Z" fill="#003844"/>
</svg>
