<svg width="51" height="50" viewBox="0 0 51 50" fill="none" xmlns="http://www.w3.org/2000/svg">
<g clip-path="url(#clip0_476:4475)">
<path d="M3.39062 5C1.74609 5 0.390625 6.35547 0.390625 8V37C0.390625 38.6445 1.74609 40 3.39062 40H20.7969L20.2656 43.375C20.1172 44.3125 19.3398 45 18.3906 45H17.3906C17.3594 45 17.3281 45 17.2969 45C16.7461 45.0273 16.3164 45.4961 16.3438 46.0469C16.3711 46.5977 16.8398 47.0273 17.3906 47H33.3906C33.75 47.0039 34.0859 46.8164 34.2695 46.5039C34.4492 46.1914 34.4492 45.8086 34.2695 45.4961C34.0859 45.1836 33.75 44.9961 33.3906 45H32.3906C31.4414 45 30.6641 44.3125 30.5156 43.375L29.9844 40H47.3906C49.0352 40 50.3906 38.6445 50.3906 37V8C50.3906 6.35547 49.0352 5 47.3906 5H3.39062ZM3.39062 7H47.3906C47.957 7 48.3906 7.43359 48.3906 8V32H2.39062V8C2.39062 7.43359 2.82422 7 3.39062 7ZM2.39062 34H48.3906V37C48.3906 37.5664 47.957 38 47.3906 38H3.39062C2.82422 38 2.39062 37.5664 2.39062 37V34ZM25.3906 34.9062C24.7891 34.9062 24.2969 35.3984 24.2969 36C24.2969 36.6016 24.7891 37.0938 25.3906 37.0938C25.9922 37.0938 26.4844 36.6016 26.4844 36C26.4844 35.3984 25.9922 34.9062 25.3906 34.9062ZM22.8594 40H27.9219L28.5156 43.6875C28.5898 44.1602 28.7578 44.6016 28.9844 45H21.7969C22.0234 44.6016 22.1914 44.1602 22.2656 43.6875L22.8594 40Z" fill="#003844"/>
</g>
<defs>
<clipPath id="clip0_476:4475">
<rect width="50" height="50" fill="white" transform="translate(0.390625)"/>
</clipPath>
</defs>
</svg>
