<svg width="45" height="50" viewBox="0 0 45 50" fill="none" xmlns="http://www.w3.org/2000/svg">
<path d="M23 0C10.8594 0 1 9.85938 1 22C1 27.3203 2.88672 32.1953 6.03125 36H1.3125C0.953125 35.9961 0.617188 36.1836 0.433594 36.4961C0.253906 36.8086 0.253906 37.1914 0.433594 37.5039C0.617188 37.8164 0.953125 38.0039 1.3125 38H10V29.3125C10.0039 29.0234 9.87891 28.75 9.66406 28.5586C9.44922 28.3672 9.16016 28.2773 8.875 28.3125C8.37109 28.375 7.99609 28.8047 8 29.3125V35.1875C4.89844 31.6641 3 27.0703 3 22C3 10.9414 11.9414 2 23 2C34.0586 2 43 10.9414 43 22C43 27.2852 40.9688 32.082 37.625 35.6562C37.332 35.9023 37.207 36.2969 37.3008 36.6641C37.3945 37.0352 37.6953 37.3203 38.0664 37.3984C38.4414 37.4766 38.8281 37.332 39.0625 37.0312C42.7383 33.1016 45 27.8008 45 22C45 9.85938 35.1406 0 23 0ZM22.875 7.40625C18.2031 7.49219 15.2188 9.37891 13.9375 12.3125C12.7148 15.1055 12.9883 18.6328 13.875 22.2812C13.3984 22.8398 13.0195 23.5898 13.1562 24.7188C13.3047 25.9492 13.6445 26.8242 14.125 27.4375C14.3906 27.7734 14.7383 27.8047 15.0625 27.9688C15.2383 29.0156 15.5312 30.0625 15.9688 30.9375C16.2188 31.4414 16.5039 31.9062 16.7812 32.2812C16.9062 32.4492 17.0859 32.5469 17.2188 32.6875C17.2266 33.9219 17.2305 34.9492 17.125 36.25C16.8008 37.0352 16.043 37.668 14.8125 38.2812C13.543 38.9141 11.8906 39.5 10.2188 40.2188C8.54688 40.9375 6.82812 41.8125 5.46875 43.1875C4.10938 44.5625 3.14844 46.4492 3 48.9375L2.9375 50H43.0625L43 48.9375C42.8516 46.4492 41.8867 44.5625 40.5312 43.1875C39.1758 41.8125 37.4766 40.9375 35.8125 40.2188C34.1484 39.5 32.5156 38.9141 31.25 38.2812C30.0352 37.6719 29.2695 37.0547 28.9375 36.2812C28.8281 34.9648 28.8359 33.9297 28.8438 32.6875C28.9727 32.5469 29.1602 32.4492 29.2812 32.2812C29.5547 31.9023 29.8164 31.4375 30.0625 30.9375C30.4883 30.0625 30.7969 29.0117 30.9688 27.9688C31.2812 27.8047 31.6172 27.7656 31.875 27.4375C32.3555 26.8242 32.6953 25.9492 32.8438 24.7188C32.9766 23.625 32.6094 22.9023 32.1562 22.3438C32.6445 20.7578 33.2695 18.1953 33.0625 15.5625C32.9492 14.125 32.582 12.6914 31.7188 11.5C30.9297 10.4062 29.6484 9.60938 28.0312 9.28125C26.9805 7.91797 25.0898 7.40625 22.9062 7.40625H22.875ZM22.9062 9.40625C22.918 9.40625 22.9258 9.40625 22.9375 9.40625C24.9492 9.41406 26.2539 10.0039 26.625 10.6562L26.875 11.0625L27.3438 11.125C28.7344 11.3203 29.5312 11.8789 30.0938 12.6562C30.6562 13.4336 30.9688 14.5195 31.0625 15.7188C31.25 18.1172 30.5586 20.9102 30.125 22.2188L29.875 23L30.5625 23.4062C30.5195 23.3789 30.9453 23.668 30.8438 24.5C30.7266 25.4805 30.4922 25.9883 30.3125 26.2188C30.1328 26.4492 30.0391 26.4375 30.0312 26.4375L29.1875 26.5L29.0938 27.3125C29 28.1758 28.6523 29.2344 28.25 30.0625C28.0469 30.4766 27.8398 30.8398 27.6562 31.0938C27.4727 31.3477 27.2812 31.4883 27.375 31.4375L26.8438 31.7188V32.3125C26.8438 33.7578 26.7852 34.9492 26.9375 36.625V36.75L27 36.875C27.5703 38.4102 28.8906 39.3672 30.3438 40.0938C31.7969 40.8203 33.4648 41.3555 35.0312 42.0312C36.5977 42.707 38.0312 43.5156 39.0938 44.5938C39.9375 45.4492 40.4688 46.582 40.75 48H5.25C5.53125 46.5859 6.05859 45.4492 6.90625 44.5938C7.97266 43.5156 9.42578 42.707 11 42.0312C12.5742 41.3555 14.2305 40.8203 15.6875 40.0938C17.1445 39.3672 18.4922 38.4102 19.0625 36.875L19.125 36.625C19.2773 34.9492 19.2188 33.7617 19.2188 32.3125V31.7188L18.6875 31.4375C18.7773 31.4844 18.5625 31.3477 18.375 31.0938C18.1875 30.8398 17.957 30.4766 17.75 30.0625C17.3359 29.2344 16.9961 28.168 16.9062 27.3125L16.8125 26.5L15.9688 26.4375C15.9609 26.4375 15.8672 26.4492 15.6875 26.2188C15.5078 25.9883 15.2734 25.4805 15.1562 24.5C15.0586 23.668 15.4805 23.3789 15.4375 23.4062L16.0938 23L15.9062 22.2812C14.9648 18.6562 14.8008 15.3633 15.7812 13.125C16.7578 10.8945 18.75 9.49219 22.9062 9.40625Z" fill="#003844"/>
</svg>
