<svg width="39" height="44" viewBox="0 0 39 44" fill="none" xmlns="http://www.w3.org/2000/svg">
<path d="M19.335 9.20337e-05C19.1486 -0.00474066 18.9646 0.0426138 18.8037 0.136811L0.803711 10.6368C0.652828 10.7248 0.527635 10.8509 0.440597 11.0023C0.353559 11.1538 0.307711 11.3254 0.307617 11.5001V32.5001C0.307711 32.6748 0.353559 32.8464 0.440597 32.9979C0.527635 33.1493 0.652828 33.2753 0.803711 33.3634L18.8037 43.8634C18.9567 43.9526 19.1306 43.9996 19.3076 43.9996C19.4847 43.9996 19.6586 43.9526 19.8115 43.8634L37.8115 33.3634C37.9624 33.2753 38.0876 33.1493 38.1746 32.9979C38.2617 32.8464 38.3075 32.6748 38.3076 32.5001V11.5001C38.3075 11.3254 38.2617 11.1538 38.1746 11.0023C38.0876 10.8509 37.9624 10.7248 37.8115 10.6368L19.8115 0.136811C19.6667 0.0519613 19.5028 0.00494368 19.335 9.20337e-05ZM19.3076 2.1583L35.4092 11.5489L19.3076 20.8458L3.20605 11.5489L19.3076 2.1583ZM2.30762 13.3399L18.3076 22.5782V41.2579L2.30762 31.9259V13.3399ZM36.3076 13.3399V31.9259L20.3076 41.2579V22.5763L36.3076 13.3399Z" fill="#003844"/>
</svg>
