<svg width="55" viewBox="0 0 72 72" fill="none" xmlns="http://www.w3.org/2000/svg">
<path d="M27 0C23.685 0 21 2.685 21 6C21 6.051 21.0176 6.10134 21.0176 6.15234C20.5136 6.09534 20.019 6 19.5 6C12.045 6 6 12.045 6 19.5C6 20.913 6.27469 22.2474 6.67969 23.5254C4.30669 25.1094 2.43534 27.363 1.27734 30H18V23.168C16.215 22.127 15 20.214 15 18C15 14.685 17.685 12 21 12C24.315 12 27 14.685 27 18C27 20.214 25.785 22.127 24 23.168V33C24 34.659 22.656 36 21 36H0C0 41.205 2.65369 45.7836 6.67969 48.4746C6.27469 49.7526 6 51.087 6 52.5C6 59.49 11.3336 65.1664 18.1406 65.8594C18.7826 69.3484 21.825 72 25.5 72C29.643 72 33 68.643 33 64.5V54H26.168C25.127 55.785 23.214 57 21 57C17.685 57 15 54.315 15 51C15 47.685 17.685 45 21 45C23.214 45 25.127 46.215 26.168 48H33V6C33 2.685 30.315 0 27 0ZM45 0C41.685 0 39 2.685 39 6V18H45.832C46.873 16.215 48.786 15 51 15C54.315 15 57 17.685 57 21C57 24.315 54.315 27 51 27C48.786 27 46.873 25.785 45.832 24H39V64.5C39 68.643 42.357 72 46.5 72C50.175 72 53.2174 69.3484 53.8594 65.8594C59.1454 65.3224 63.6706 61.887 65.3086 57H51C49.344 57 48 55.659 48 54V47.168C46.215 46.13 45 44.217 45 42C45 38.685 47.685 36 51 36C54.315 36 57 38.685 57 42C57 44.214 55.785 46.127 54 47.168V51H65.8887C65.6007 48.192 64.7988 46.9863 64.7988 46.9863C69.0318 45.1293 72 40.911 72 36C72 30.795 69.3463 26.2164 65.3203 23.5254C65.7253 22.2474 66 20.913 66 19.5C66 12.045 59.955 6 52.5 6C51.981 6 51.4864 6.09534 50.9824 6.15234C50.9824 6.10134 51 6.051 51 6C51 2.685 48.315 0 45 0Z" fill="#6EC8E6"/>
</svg>
