<svg width="55" viewBox="0 0 63 42" fill="none" xmlns="http://www.w3.org/2000/svg">
<path d="M54.1982 17.2401C54.2085 17.0045 54.2333 16.7731 54.2333 16.5333C54.2333 7.4028 46.8305 0 37.7 0C31.2727 0 25.7133 3.6766 22.9791 9.0334C21.7784 8.54773 20.4743 8.26667 19.1 8.26667C13.8713 8.26667 9.5954 12.1623 8.9072 17.2029C4.01953 18.8666 0.5 23.4835 0.5 28.9333C0.5 35.7823 6.05107 41.3333 12.9 41.3333H50.1C56.9489 41.3333 62.5 35.7823 62.5 28.9333C62.5 23.5228 59.0301 18.9348 54.1982 17.2401ZM39.1611 28.3278L32.9611 34.5278C32.5581 34.9308 32.0291 35.1333 31.5 35.1333C30.9709 35.1333 30.4419 34.9308 30.0389 34.5278L23.8389 28.3278C23.0308 27.5197 23.0308 26.2136 23.8389 25.4055C24.6469 24.5975 25.9531 24.5975 26.7611 25.4055L29.4333 28.0777V16.5333C29.4333 15.3925 30.3571 14.4667 31.5 14.4667C32.6429 14.4667 33.5667 15.3925 33.5667 16.5333V28.0777L36.2389 25.4055C37.0469 24.5975 38.3531 24.5975 39.1611 25.4055C39.9692 26.2136 39.9692 27.5197 39.1611 28.3278Z" fill="#6EC8E6"/>
</svg>
