<svg width="35"  viewBox="0 0 34 58" fill="none" xmlns="http://www.w3.org/2000/svg">
<path d="M4.60001 0C2.30601 0 0.466675 1.83933 0.466675 4.13333V53.7333C0.466675 56.0067 2.30601 57.8667 4.60001 57.8667H29.4C31.6733 57.8667 33.5333 56.0067 33.5333 53.7333V4.13333C33.5333 1.83933 31.6733 0 29.4 0H4.60001ZM4.60001 6.2H29.4V47.5333H4.60001V6.2ZM17 16.5333C12.784 16.5333 9.31055 19.6953 8.79389 23.7667H14.9333V22.7333H19.0667V26.8667H14.9333V25.8333H8.79389C9.31055 29.9047 12.784 33.0667 17 33.0667C21.5673 33.0667 25.2667 29.3673 25.2667 24.8C25.2667 20.2327 21.5673 16.5333 17 16.5333ZM17 49.6C18.1367 49.6 19.0667 50.53 19.0667 51.6667C19.0667 52.8033 18.1367 53.7333 17 53.7333C15.8633 53.7333 14.9333 52.8033 14.9333 51.6667C14.9333 50.53 15.8633 49.6 17 49.6Z" fill="#6EC8E6"/>
</svg>
