<svg width="55" height="56" viewBox="0 0 55 56" fill="none" xmlns="http://www.w3.org/2000/svg">
<path d="M25.4333 0C11.7582 0 0.633301 11.1249 0.633301 24.8C0.633301 38.4751 11.7582 49.6 25.4333 49.6C27.5785 49.6 29.6472 49.2992 31.6333 48.7846V37.9467C30.0048 42.5823 27.6508 45.4667 25.4333 45.4667C22.7921 45.4667 19.9462 41.4139 18.3776 35.1333H31.6333V31H17.5824C17.3158 29.0594 17.1666 26.9803 17.1666 24.8C17.1666 22.601 17.3562 20.5547 17.6268 18.6H33.2398C33.5104 20.5547 33.7 22.601 33.7 24.8C33.7 25.3663 33.6621 25.9051 33.6435 26.459C34.7491 25.4381 36.213 24.8 37.8333 24.8C37.8333 22.6381 37.695 20.572 37.4579 18.6H45.1433C45.761 20.5581 46.1 22.6401 46.1 24.8C46.1 26.2363 45.937 27.6321 45.656 28.9858L49.2726 31.5651C49.8844 29.4116 50.2333 27.1477 50.2333 24.8C50.2333 11.1249 39.1084 0 25.4333 0ZM25.4333 4.13333C28.068 4.13333 30.8781 8.21339 32.4487 14.4667H18.4179C19.9885 8.21339 22.7986 4.13333 25.4333 4.13333ZM17.2958 5.80846C15.9237 8.13864 14.8325 11.0875 14.0949 14.4667H7.54775C9.77283 10.6336 13.1925 7.57378 17.2958 5.80846ZM33.5708 5.80846C37.6741 7.57378 41.0938 10.6336 43.3188 14.4667H36.7717C36.0341 11.0875 34.9429 8.13864 33.5708 5.80846ZM5.72327 18.6H13.4087C13.1716 20.572 13.0333 22.6381 13.0333 24.8C13.0333 26.9617 13.1731 29.0263 13.4087 31H5.71924C5.10337 29.0408 4.76663 26.9597 4.76663 24.8C4.76663 22.6401 5.10556 20.5581 5.72327 18.6ZM37.8656 28.9091C37.5718 28.9028 37.28 28.9593 37.0097 29.0747C36.7394 29.1902 36.4969 29.3619 36.2983 29.5785C36.0996 29.7951 35.9494 30.0516 35.8578 30.3308C35.7661 30.61 35.735 30.9056 35.7666 31.1978V49.6C35.7666 50.7408 36.6925 51.6667 37.8333 51.6667C38.4285 51.6667 38.9547 51.4077 39.3308 51.0047L39.3429 51.0087L43.23 46.4152L47.3513 54.6577C47.4726 54.9005 47.6406 55.117 47.8457 55.2949C48.0507 55.4728 48.2888 55.6086 48.5463 55.6944C48.8039 55.7803 49.0758 55.8146 49.3466 55.7954C49.6173 55.7761 49.8817 55.7037 50.1245 55.5823C50.3673 55.4609 50.5838 55.2929 50.7616 55.0878C50.9395 54.8827 51.0752 54.6446 51.161 54.3871C51.2468 54.1296 51.2811 53.8576 51.2618 53.5869C51.2425 53.3161 51.1701 53.0518 51.0487 52.809L46.8427 44.401L52.8691 43.3193L52.8731 43.2829C53.7287 43.0329 54.3666 42.2716 54.3666 41.3333C54.3666 40.6121 53.9721 40.0079 53.41 39.638L53.4181 39.5977L39.2824 29.5146C38.9058 29.1377 38.3982 28.9208 37.8656 28.9091ZM7.5639 35.1333H14.0909C14.8266 38.5185 15.9195 41.4603 17.2918 43.7915C13.1936 42.0266 9.7897 38.9649 7.5639 35.1333Z" fill="#6EC8E6"/>
</svg>
