<svg width="52" viewBox="0 0 66 72" fill="none" xmlns="http://www.w3.org/2000/svg">
<path d="M33 0C19.194 0 4.83398 3.11133 4.83398 3.11133L4.82227 3.12305C3.46344 3.39506 2.24066 4.12905 1.36162 5.20035C0.482571 6.27166 0.0014606 7.61421 0 9V27C0 58.194 30.0645 71.2324 30.0645 71.2324C30.961 71.7356 31.9719 71.9999 33 72C34.0241 71.9979 35.0307 71.7336 35.9238 71.2324H35.9355C35.9385 71.2324 66 58.194 66 27V9C66.0007 7.61055 65.5192 6.26392 64.6376 5.18998C63.756 4.11603 62.529 3.38135 61.166 3.11133C61.166 3.11133 46.806 0 33 0ZM33 21C37.971 21 42 25.029 42 30C42 33.912 39.489 37.2102 36 38.4492V48C36 49.656 34.656 51 33 51C31.344 51 30 49.656 30 48V38.4492C26.511 37.2102 24 33.912 24 30C24 25.029 28.029 21 33 21Z" fill="#6EC8E6"/>
</svg>
