<svg width="55" viewBox="0 0 62 63" fill="none" xmlns="http://www.w3.org/2000/svg">
<path d="M19.6968 6.52643H5.62767C2.52401 6.52643 0 9.05032 0 12.1538V26.2224C0 29.3259 2.52401 31.8498 5.62767 31.8498H19.6968C22.8005 31.8498 25.3245 29.3259 25.3245 26.2224V12.1538C25.3245 9.05032 22.8005 6.52643 19.6968 6.52643ZM60.3539 12.3958L50.407 2.44655C48.215 0.251865 44.6415 0.251865 42.4495 2.44655L32.5026 12.3958C30.3078 14.5905 30.3078 18.1583 32.5026 20.353L42.4495 30.3022C43.5469 31.3996 44.9876 31.9483 46.4283 31.9483C47.8689 31.9483 49.3096 31.3996 50.407 30.3022L60.3539 20.353C62.5487 18.1583 62.5487 14.5905 60.3539 12.3958ZM19.6968 37.4772H5.62767C2.52401 37.4772 0 40.0011 0 43.1046V57.1731C0 60.2766 2.52401 62.8005 5.62767 62.8005H19.6968C22.8005 62.8005 25.3245 60.2766 25.3245 57.1731V43.1046C25.3245 40.0011 22.8005 37.4772 19.6968 37.4772ZM50.649 37.4772H36.5798C33.4762 37.4772 30.9522 40.0011 30.9522 43.1046V57.1731C30.9522 60.2766 33.4762 62.8005 36.5798 62.8005H50.649C53.7527 62.8005 56.2767 60.2766 56.2767 57.1731V43.1046C56.2767 40.0011 53.7527 37.4772 50.649 37.4772Z" fill="#6EC8E6"/>
</svg>
