<svg width="79" height="79" viewBox="0 0 79 79" fill="none" xmlns="http://www.w3.org/2000/svg">
<path d="M39.5004 0.41333C17.9262 0.41333 0.400391 17.9391 0.400391 39.5133C0.400391 61.0875 17.9262 78.6133 39.5004 78.6133C61.0746 78.6133 78.6004 61.0875 78.6004 39.5133C78.6004 17.9391 61.0746 0.41333 39.5004 0.41333ZM39.5004 3.81333C59.2371 3.81333 75.2004 19.7766 75.2004 39.5133C75.2004 49.2589 71.2972 58.074 64.9805 64.512C61.8698 62.2283 58.0781 61.0825 54.8668 59.9399C53.0582 59.2964 51.4321 58.6586 50.2449 57.9477C49.1079 57.2668 48.4765 56.5671 48.1432 55.7629C47.987 53.8133 48.0186 52.2437 48.0303 50.3907C48.2362 50.1856 48.5005 50.0414 48.7109 49.793C49.2073 49.2071 49.7127 48.4952 50.1951 47.6946C51.0223 46.3217 51.6242 44.6424 51.9615 42.9399C52.4766 42.6773 53.0268 42.6205 53.4457 42.0866C54.2192 41.1007 54.7413 39.7134 54.973 37.7801C55.1786 36.0732 54.6286 34.8993 53.9205 33.9983C54.6823 31.5081 55.6254 27.5479 55.3051 23.4497C55.1288 21.1949 54.5615 18.9254 53.1967 17.0381C51.8937 15.2363 49.7782 13.9412 47.0707 13.4721C45.3511 11.5197 42.6194 10.6 39.3543 10.6H39.3377H39.3244C32.0097 10.7343 27.2902 13.7618 25.2695 18.3795C23.348 22.7706 23.7611 28.2372 25.14 33.9286C24.3988 34.8296 23.8181 36.026 24.0277 37.7801C24.2604 39.7127 24.7822 41.1006 25.5551 42.0866C25.9737 42.6206 26.524 42.6772 27.0393 42.9399C27.3765 44.6411 27.9785 46.3181 28.8057 47.6913C29.2881 48.4921 29.7929 49.2033 30.2898 49.7897C30.5004 50.0381 30.7643 50.1854 30.9705 50.3907C30.9816 52.2427 31.013 53.8117 30.8576 55.7629C30.5249 56.5642 29.8943 57.2642 28.7592 57.9477C27.5739 58.6614 25.9497 59.3026 24.1439 59.9499C20.9361 61.0996 17.1464 62.2536 14.027 64.5186C7.70636 58.0801 3.80039 49.2623 3.80039 39.5133C3.80039 19.7766 19.7637 3.81333 39.5004 3.81333ZM39.3676 14.0034C42.5026 14.0066 44.4751 14.9348 45.0154 15.8827L45.4305 16.6098L46.2572 16.7227C48.3927 17.0194 49.5859 17.8481 50.4408 19.0303C51.2957 20.2125 51.7702 21.8624 51.915 23.7153C52.2047 27.4211 51.1439 31.7972 50.4707 33.8223L50.0424 35.1073L51.2012 35.8112C51.0833 35.7394 51.746 36.1317 51.5963 37.375C51.4149 38.8877 51.0284 39.6582 50.7695 39.9881C50.5107 40.3181 50.3998 40.2759 50.4275 40.2737L49.0264 40.3899L48.877 41.7877C48.7487 42.9887 48.0732 44.6269 47.2832 45.9381C46.8882 46.5938 46.4679 47.1778 46.1145 47.595C45.761 48.0122 45.3846 48.2705 45.5268 48.1959L44.617 48.6707V49.7C44.617 51.9514 44.5253 53.7924 44.7631 56.4137L44.783 56.6395L44.8627 56.852C45.5317 58.6524 46.9282 59.9226 48.4984 60.8629C50.0687 61.8033 51.8702 62.483 53.7279 63.144C56.7896 64.2334 59.9811 65.3055 62.4139 66.8893C56.2152 72.0813 48.2309 75.2133 39.5004 75.2133C30.7733 75.2133 22.7912 72.0843 16.5936 66.8959C19.0402 65.3212 22.2364 64.2461 25.2928 63.1506C27.1492 62.4852 28.946 61.8027 30.5123 60.8596C32.0786 59.9166 33.47 58.6466 34.1381 56.852L34.2178 56.6395L34.2377 56.4137C34.4736 53.7945 34.3838 51.9531 34.3838 49.7V48.6707L33.474 48.1926C33.6164 48.2671 33.2399 48.0089 32.8863 47.5916C32.5327 47.1744 32.1126 46.5939 31.7176 45.9381C30.9275 44.6265 30.252 42.9871 30.1238 41.7877L29.9744 40.3899L28.5732 40.2737C28.5995 40.2759 28.4898 40.318 28.2312 39.9881C27.9727 39.6583 27.5867 38.8884 27.4045 37.375C27.2559 36.1314 27.926 35.7344 27.7996 35.8112L28.8787 35.1571L28.5633 33.9319C27.1005 28.302 26.8793 23.1794 28.384 19.7409C29.8872 16.3057 32.8983 14.1263 39.3676 14.0034Z" fill="#003844"/>
</svg>
