<svg width="800" height="600" viewBox="0 0 800 600" fill="none" xmlns="http://www.w3.org/2000/svg">
<path d="M702 507C702 519.65 691.871 530 679.491 530H123.509C111.017 530 101 519.65 101 507H702Z" fill="#DDF5FD"/>
<path d="M727.039 128.297C725.029 128.297 723.273 129.262 722.195 130.736C719.521 125.804 714.238 122.451 708.143 122.451C704.191 122.451 700.586 123.847 697.805 126.196C694.984 119.41 688.212 114.648 680.294 114.648C677.632 114.648 675.104 115.196 672.802 116.175C672.532 115.608 672.241 115.052 671.932 114.509V114.486C670.105 111.276 667.602 108.491 664.625 106.29C664.613 106.282 664.603 106.273 664.591 106.265C664.108 105.909 663.612 105.57 663.104 105.245C663.083 105.231 663.062 105.218 663.041 105.204C662.541 104.888 662.03 104.587 661.509 104.302C661.48 104.287 661.45 104.27 661.421 104.255C660.904 103.976 660.377 103.712 659.839 103.466C659.805 103.451 659.771 103.434 659.737 103.42C659.202 103.177 658.659 102.952 658.104 102.744C658.066 102.729 658.029 102.714 657.99 102.7C657.436 102.495 656.874 102.308 656.303 102.138C656.263 102.127 656.225 102.113 656.187 102.102C655.612 101.934 655.031 101.784 654.44 101.654C654.403 101.646 654.367 101.635 654.33 101.628C653.728 101.498 653.119 101.386 652.502 101.296C652.477 101.292 652.451 101.286 652.426 101.283C651.152 101.1 649.849 101 648.522 101C648.514 101 648.507 101.001 648.499 101.001C648.492 101.001 648.486 101 648.478 101C647.151 101 645.848 101.1 644.573 101.283C644.547 101.287 644.522 101.293 644.497 101.296C643.881 101.385 643.271 101.497 642.669 101.628C642.632 101.636 642.596 101.646 642.559 101.654C641.969 101.784 641.387 101.934 640.812 102.102C640.773 102.113 640.735 102.127 640.696 102.138C640.125 102.308 639.563 102.495 639.009 102.7C638.971 102.715 638.933 102.73 638.895 102.744C638.341 102.952 637.797 103.177 637.261 103.42C637.228 103.435 637.194 103.451 637.16 103.466C636.622 103.712 636.095 103.976 635.577 104.255C635.548 104.27 635.519 104.287 635.49 104.302C634.968 104.587 634.458 104.888 633.958 105.204C633.937 105.218 633.916 105.231 633.895 105.245C633.387 105.569 632.891 105.909 632.408 106.265C632.396 106.273 632.386 106.282 632.374 106.29C629.398 108.491 626.895 111.276 625.067 114.486V114.509C624.758 115.052 624.467 115.608 624.197 116.175C621.895 115.196 619.367 114.648 616.705 114.648C608.787 114.648 602.015 119.41 599.194 126.196C596.413 123.847 592.807 122.451 588.855 122.451C582.761 122.451 577.478 125.804 574.804 130.736C573.726 129.262 571.97 128.297 569.96 128.297C566.675 128.296 564 130.918 564 134.142C564 137.377 566.675 140 569.961 140H625.068H671.932H727.039C730.325 140 733 137.377 733 134.142C733 130.918 730.325 128.296 727.039 128.297Z" fill="#DDF5FD"/>
<path d="M264.651 100.396C262.51 100.396 260.64 101.436 259.492 103.023C256.643 97.7121 251.017 94.1006 244.526 94.1006C240.316 94.1006 236.476 95.6042 233.514 98.1337C230.509 90.8266 223.296 85.6981 214.863 85.6981C212.028 85.6981 209.335 86.2879 206.884 87.3419C206.596 86.7319 206.286 86.1332 205.957 85.5479V85.5232C204.011 82.0665 201.345 79.0672 198.174 76.6969C198.162 76.688 198.151 76.679 198.138 76.67C197.624 76.2866 197.096 75.9211 196.555 75.5712C196.532 75.5567 196.51 75.5421 196.487 75.5275C195.954 75.1867 195.411 74.8626 194.855 74.5565C194.825 74.5397 194.793 74.5218 194.763 74.505C194.212 74.2045 193.65 73.9208 193.077 73.6562C193.041 73.6394 193.005 73.6214 192.969 73.6057C192.399 73.3445 191.82 73.1023 191.23 72.8781C191.189 72.8624 191.149 72.8455 191.107 72.831C190.517 72.6101 189.919 72.4083 189.31 72.2255C189.269 72.2132 189.228 72.1986 189.187 72.1863C188.575 72.0057 187.956 71.8443 187.327 71.7041C187.287 71.6952 187.249 71.6839 187.209 71.6761C186.568 71.5359 185.92 71.416 185.263 71.3184C185.236 71.3139 185.209 71.3083 185.182 71.305C183.824 71.1076 182.437 71 181.023 71C181.015 71 181.007 71.0011 180.999 71.0011C180.992 71.0011 180.985 71 180.977 71C179.563 71 178.176 71.1076 176.817 71.305C176.79 71.3095 176.763 71.3151 176.736 71.3184C176.08 71.4149 175.431 71.5348 174.79 71.6761C174.75 71.6851 174.712 71.6952 174.672 71.7041C174.044 71.8443 173.424 72.0057 172.812 72.1863C172.77 72.1986 172.729 72.2132 172.688 72.2255C172.08 72.4083 171.482 72.6101 170.891 72.831C170.851 72.8467 170.81 72.8635 170.769 72.8781C170.18 73.1023 169.6 73.3445 169.03 73.6057C168.994 73.6225 168.958 73.6394 168.921 73.6562C168.349 73.9208 167.787 74.2045 167.236 74.505C167.205 74.5218 167.174 74.5397 167.144 74.5565C166.587 74.8626 166.044 75.1867 165.512 75.5275C165.489 75.5421 165.467 75.5567 165.444 75.5712C164.903 75.9199 164.375 76.2866 163.861 76.67C163.848 76.679 163.837 76.688 163.824 76.6969C160.655 79.0672 157.989 82.0665 156.042 85.5232V85.5479C155.712 86.1332 155.403 86.7319 155.115 87.3419C152.664 86.2879 149.971 85.6981 147.136 85.6981C138.703 85.6981 131.49 90.8266 128.485 98.1337C125.523 95.6042 121.683 94.1006 117.473 94.1006C110.982 94.1006 105.356 97.7121 102.507 103.023C101.359 101.436 99.4885 100.396 97.3478 100.396C93.8487 100.395 91 103.22 91 106.691C91 110.176 93.8487 113 97.3489 113H156.043H205.957H264.651C268.151 113 271 110.176 271 106.691C271 103.22 268.151 100.395 264.651 100.396Z" fill="#DDF5FD"/>
<path d="M635.731 471.527C651.804 480.46 678.307 476.818 690.409 461.717C697.812 452.479 697.353 440.713 710.228 437.23C719.534 434.712 726.771 432.279 735.245 426.096C740.663 422.144 747.983 406.914 744.338 399.282C739.046 388.201 709.457 372.895 689.342 410.669C678.211 431.57 660.59 441.521 640.406 452.818C633.774 456.53 627.392 459.491 632.203 466.982C632.797 468.974 634.078 470.15 635.731 471.527Z" fill="#DDF5FD"/>
<path d="M634.851 469.615C645.563 476.673 664.608 464.445 672.091 455.97C681.186 445.67 677.729 432.596 687.054 422.798C695.072 414.373 703.967 416.34 709.089 403.981C711.884 397.238 707.592 387.705 706.266 380.951C704.155 370.198 703.067 366.63 707.442 356.753C711.599 347.369 712.342 331.851 705.613 323.554C693.226 308.273 675.573 342.461 672.762 352.923C666.699 375.482 673.879 379.118 663.072 400.668C656.994 412.788 646.31 422.659 638.486 433.858C632.513 442.41 625.394 455.097 631.779 465.554C633.361 468.148 634.681 469.045 634.851 469.615Z" fill="#DDF5FD"/>
<path d="M635.285 456.477C644.737 455.453 653.339 443.962 657.815 434.108C662.055 424.772 664.733 414.291 664.714 405.145C664.684 389.965 674.92 386.6 681.298 374.287C688.313 360.746 682.572 336.601 673.96 324.116C661.215 305.632 645.461 321.189 637.977 334.589C628.319 351.886 632.795 378.115 633.693 397.384C634.648 417.888 633.577 431.742 628.104 451.137C627.664 455.911 632.459 456.371 635.285 456.477Z" fill="#DDF5FD"/>
<path d="M410 440C506.649 440 584.999 361.669 584.999 265.043C584.999 168.417 506.649 90.0859 410 90.0859C313.35 90.0859 235 168.417 235 265.043C235 361.669 313.35 440 410 440Z" fill="#B0D3FF"/>
<path d="M379.453 407.153C373.163 405.057 364.356 398.77 362.68 391.643C361.003 384.516 347.584 385.773 347.584 385.773C350.1 372.355 348.424 361.882 349.262 355.172C350.101 348.462 363.515 343.852 360.141 340.918C356.767 337.984 356.39 330.857 356.39 330.857C361.842 321.216 359.745 314.507 359.745 314.507C353.874 298.158 334.586 300.674 334.586 300.674C340.876 295.643 337.102 292.29 337.102 292.29C331.169 289.768 325.424 286.826 319.909 283.488C309.427 287.679 309.846 275.942 309.846 275.942C302.866 277.444 295.58 276.403 289.3 273.007C264.981 275.942 247.788 297.322 247.788 297.322C251.562 304.029 257.85 309.898 260.786 321.217C263.722 332.536 270.43 335.885 270.43 335.885C270.43 335.885 283.008 338.4 302.297 366.068C321.587 393.736 312.361 371.099 323.263 384.932C334.166 398.766 335.842 401.286 342.132 401.704C348.421 402.123 370.226 413.023 379.451 413.023C388.675 413.023 385.742 409.25 379.453 407.153Z" fill="#E9F2FF"/>
<path d="M258.271 283.907C258.585 290.509 262.78 280.973 262.78 280.973C260.271 277.477 257.577 274.118 254.708 270.912C254.708 270.912 261.627 262.841 251.877 257.601C251.877 257.601 260.264 245.445 258.585 242.301C258.585 242.301 257.624 242.552 247.055 250.055C243.071 252.882 244.749 235.802 244.749 235.802C247.893 232.658 254.812 230.144 257.014 227C259.215 223.855 262.845 219.328 270.222 223.541C274.625 226.056 284.059 219.454 284.059 219.454C284.059 219.454 289.719 228.572 288.147 233.603C288.147 233.603 294.751 233.603 295.38 221.341C295.38 221.341 299.783 213.166 301.041 208.45C308.545 204.813 315.704 200.497 322.426 195.56C322.426 195.56 330.728 203.215 329.03 187.386C328.086 178.583 341.923 174.495 341.923 174.495C341.923 174.495 339.092 155.945 336.577 152.487C336.577 152.487 324.312 168.521 326.513 152.487C328.714 136.453 312.361 154.374 312.361 154.374C312.361 154.374 309.53 167.264 296.323 166.95L295.379 148.4C295.379 148.4 316.764 139.911 315.192 134.88C313.619 129.85 329.344 124.191 329.344 124.191C329.344 124.191 330.601 131.108 335.004 131.736C339.406 132.366 328.4 148.4 338.463 142.426C348.526 136.452 351.356 133.623 351.356 133.623C351.356 133.623 356.702 120.733 356.388 118.217C356.388 118.217 381.859 111.3 385.321 116.33C388.783 121.361 369.283 126.392 369.283 126.392C369.283 126.392 363.937 134.566 365.195 138.968C366.453 143.369 358.906 140.225 353.245 149.343C353.245 149.343 369.685 154.248 385.732 138.654C393.499 131.108 391.298 126.392 391.298 126.392C391.298 126.392 402.603 118.217 410 116.645C417.398 115.073 410 104.069 410 104.069C410 104.069 421.172 98.7951 418.027 90.2744C418.027 90.2744 376.444 86.3166 331.667 108.557C286.89 130.794 267.086 163.297 262.57 170.742C258.055 178.187 239.948 210.565 238.89 228.214C237.833 245.864 242.234 252.467 240.347 256.239C238.46 260.012 246.322 260.326 245.065 265.042C243.807 269.758 241.711 274.788 247.791 278.561C253.871 282.335 257.957 277.304 258.271 283.907Z" fill="#E9F2FF"/>
<path d="M524.479 269.916C528.092 262.999 540.675 255.611 540.675 255.611C540.675 255.611 545.235 251.681 542.248 248.537C539.261 245.393 537.53 246.179 532.656 249.794C527.782 253.41 518.347 247.122 511.272 236.589C504.196 226.056 503.724 228.886 503.724 228.886C503.724 228.886 506.555 210.022 486.113 219.612C481.396 221.97 472.276 217.725 466.93 215.053C461.584 212.38 459.225 218.826 459.068 219.454C458.91 220.083 448.532 222.126 446.96 218.039C445.388 213.952 455.294 214.266 448.062 208.449C448.062 208.449 430.136 212.223 424.633 211.908C419.129 211.593 424.633 215.837 412.054 216.309C399.474 216.781 404.663 229.357 404.663 229.357C404.663 229.357 397.587 234.073 395.7 239.732C394.557 243.111 392.101 245.888 388.886 247.435V256.396C388.886 256.396 379.714 260.641 388.886 268.5C390.353 274.002 390.878 278.246 388.887 278.875C388.887 278.875 388.677 286.84 423.479 284.954C434.591 284.954 437.736 286.84 438.784 293.757C439.832 300.674 447.17 308.849 447.589 311.993C448.007 315.137 454.299 321.425 443.606 331.696C443.606 331.696 443.657 335.469 447.903 338.613C452.149 341.757 458.595 359.05 458.595 359.05C458.595 359.05 470.074 370.368 478.093 373.198C482.878 374.896 487.997 375.435 493.031 374.771C493.031 374.771 494.132 370.841 495.39 366.754C496.648 362.666 502.937 362.037 504.982 346.946C507.026 331.854 508.284 317.077 506.24 311.89C504.195 306.703 500.618 294.598 507.281 287.052C513.945 279.506 520.866 276.833 524.479 269.916Z" fill="#E9F2FF"/>
<path d="M522.34 339.84C522.678 338.826 523.045 337.621 523.422 336.342C524.398 333.081 525.613 329.023 526.862 327.044C528.914 323.796 529.43 313.653 529.511 311.652C529.521 311.415 529.485 311.177 529.407 310.953C529.063 309.969 527.987 309.451 527.002 309.795C523.784 311.094 520.84 312.987 518.323 315.376C511.8 321.388 512.836 325.377 513.668 328.582C513.998 329.573 514.148 330.615 514.111 331.659C513.934 333.377 512.241 335.501 510.883 337.208C509.278 339.224 508.118 340.677 508.502 342.313C508.695 343.109 509.25 343.768 510.001 344.096C511.167 344.586 512.424 344.823 513.689 344.792C515.29 344.801 516.879 344.492 518.362 343.885C520.215 343.181 521.668 341.703 522.34 339.84Z" fill="#E9F2FF"/>
<path d="M578.247 216.744C576.677 211.572 566.277 180.745 553.031 164.21C539.785 147.675 525.673 131.305 510.401 121.725C495.128 112.145 486.836 106.722 471.695 101.267C456.553 95.8135 461.741 101.267 461.741 101.267C464.269 103.521 467.37 105.035 470.704 105.64C470.704 105.64 465.358 110.434 464.336 115.464C463.314 120.495 458.439 116.959 459.462 114.521C460.484 112.084 456.946 104.067 451.599 103.911C446.253 103.753 441.928 109.57 439.727 113.5C437.525 117.431 437.683 122.147 429.663 123.562C421.643 124.977 422.744 135.98 422.744 135.98L430.135 133.15L431.707 143.683C431.707 143.683 437.839 143.054 439.883 134.251C440.041 130.793 435.953 129.378 439.726 126.234C443.5 123.09 450.89 117.745 450.89 116.173C450.89 116.173 452.147 127.806 447.902 131.265C443.656 134.723 446.173 138.339 450.89 136.138C455.606 133.937 457.809 131.421 459.223 132.994C460.638 134.566 452.147 140.383 452.147 140.383C452.147 140.383 451.833 150.129 444.6 149.657C439.882 149.971 438.153 155.316 438.153 155.316C438.153 155.316 431.706 155.788 431.077 150.757C430.448 145.727 427.775 144.469 427.303 150.915C426.831 157.36 429.662 165.22 421.328 169.779C412.994 174.338 408.119 173.552 408.119 173.552C408.119 173.552 407.159 176.382 409.998 180.783C412.836 185.185 409.063 194.775 402.301 186.6C395.54 178.425 393.706 195.246 393.706 195.246C393.706 195.246 388.23 200.748 388.307 204.836C388.384 208.923 389.848 211.779 392.029 212.434C397.046 213.943 397.689 218.722 400.206 217.255C402.722 215.788 402.376 212.309 412.156 212.434C416.559 212.434 417.042 204.678 418.582 202.163C420.122 199.649 426.623 189.587 434.171 190.845C438.154 191.474 435.847 194.828 445.492 194.828C449.895 195.036 441.508 199.438 443.186 200.906C444.863 202.374 446.96 205.937 449.685 201.954C452.411 197.971 449.895 192.942 455.975 192.103C458.91 191.685 458.28 199.23 459.329 200.906C460.378 202.582 464.361 204.679 466.667 194.828C468.972 184.977 472.747 189.169 474.634 192.313C476.521 195.457 481.762 196.292 488.052 195.035C488.052 195.035 492.716 207.506 495.547 209.235C498.378 210.964 501.051 214.851 505.139 217.624C509.227 220.396 515.989 232.029 520.077 234.388C520.077 238.003 522.436 248.85 527.624 244.92C532.813 240.991 532.656 239.418 536.744 235.646C539.732 233.759 547.908 237.061 551.525 227.315C543.978 218.512 545.865 217.031 536.901 217.222C533.599 211.123 533.284 209.865 535.172 208.451C537.059 207.036 540.19 213.324 543.262 213.167C546.335 213.01 551.367 208.451 554.512 208.451C557.657 208.451 556.242 212.695 559.386 213.324C562.531 213.953 563.003 215.838 564.575 220.713C566.148 225.586 572.122 226.371 573.066 235.175C574.533 240.938 578.726 243.036 578.726 233.813C578.728 224.587 579.817 221.915 578.247 216.744Z" fill="#E9F2FF"/>
<path d="M408.687 155.53C408.601 155.612 400.252 163.716 402.577 166.608C402.963 167.12 403.57 167.417 404.212 167.408C405.274 167.283 406.28 166.87 407.122 166.212C411.83 163.068 411.884 157.14 411.884 156.889C411.884 156.401 411.695 155.931 411.356 155.579C410.632 154.828 409.438 154.806 408.687 155.53Z" fill="#E9F2FF"/>
<path d="M412.262 164.253C412.377 165.001 412.927 165.608 413.66 165.797C413.813 165.835 413.971 165.856 414.128 165.856C414.716 165.856 415.271 165.581 415.628 165.113C415.699 165.019 422.73 155.741 419.993 153.24C418.368 151.753 416.401 153.549 415.561 154.318C411.382 158.136 412.225 164.002 412.262 164.253Z" fill="#E9F2FF"/>
<path d="M288.9 260.888C288.402 261.803 288.742 262.949 289.657 263.446C292.008 264.697 294.152 266.304 296.01 268.211C296.366 268.659 296.907 268.919 297.479 268.92V268.915C297.907 268.915 298.322 268.769 298.656 268.501C299.47 267.851 299.601 266.663 298.951 265.85C296.642 262.966 291.671 260.246 291.459 260.131C290.544 259.635 289.398 259.973 288.9 260.888Z" fill="#E9F2FF"/>
<path d="M295.905 257.601C295.905 256.559 295.06 255.714 294.018 255.714C293.447 255.543 292.93 255.226 292.518 254.795C291.779 254.06 290.584 254.062 289.849 254.8C289.113 255.538 289.115 256.732 289.854 257.468C290.958 258.615 292.434 259.33 294.018 259.488C295.06 259.488 295.905 258.643 295.905 257.601Z" fill="#E9F2FF"/>
<path d="M301.334 252.123C301.49 251.092 300.78 250.132 299.75 249.976C299.663 249.963 291.022 248.577 289.106 242.572C288.55 240.805 288.111 239.003 287.793 237.179C287.217 234.123 286.8 231.918 283.096 229.507C283.083 229.499 283.07 229.491 283.056 229.482C282.169 228.936 281.007 229.213 280.461 230.1C279.482 231.638 278.306 233.039 276.96 234.268C276.15 234.935 275.707 235.95 275.767 236.998C275.897 239.332 278.491 241.499 279.763 242.425C281.355 245.478 284.883 251.668 287.724 252.497C291.246 253.294 294.843 253.718 298.454 253.763C298.858 253.769 299.262 253.753 299.665 253.717C300.52 253.627 301.207 252.972 301.334 252.123Z" fill="#E9F2FF"/>
<path d="M550.267 362.351C547.751 367.538 531.556 371.154 531.556 371.154C536.273 379.015 521.178 387.66 521.178 387.66C521.178 387.66 516.304 392.377 516.775 394.415C522.751 392.528 521.178 395.044 523.533 398.188C534.692 391.265 554.553 363.685 559.441 356.131C556.036 355.413 552.783 357.163 550.267 362.351Z" fill="#E9F2FF"/>
<path d="M396.218 136.7C392.309 138.019 388.622 139.919 385.281 142.337C384.812 142.694 384.537 143.249 384.537 143.839C384.537 144.881 385.382 145.726 386.424 145.726C386.835 145.726 387.235 145.591 387.562 145.343C390.571 143.187 393.88 141.484 397.384 140.288C397.405 140.281 397.427 140.274 397.448 140.267C398.433 139.927 398.957 138.854 398.617 137.869C398.277 136.884 397.204 136.361 396.218 136.7Z" fill="#E9F2FF"/>
<path d="M405.081 278.091L401.406 277.982C401.622 271.385 398.456 265.127 392.988 261.345L395.12 258.364C401.582 262.865 405.324 270.276 405.081 278.091Z" fill="#37B4DD"/>
<path d="M405.081 278.091C404.838 270.276 408.58 262.865 415.042 258.364L417.174 261.345C411.673 265.149 408.503 271.456 408.757 278.091H405.081Z" fill="#37B4DD"/>
<path d="M420.703 245.364C428.624 245.364 437.666 251.527 440 253.2C434.946 255.145 431.546 261.218 422.596 262.382C416.623 263.127 415.244 260.982 415.244 260.982C415.244 260.982 410.521 260.527 410.521 253.709C410.595 250.182 413.609 245.364 420.703 245.364Z" fill="#37B4DD"/>
<path d="M423.092 272.491C431.638 271.309 434.873 255.146 440 253.2C436.012 252.618 429.745 255.018 415.318 260.982C412.083 269.764 416.825 273.455 423.092 272.491Z" fill="#6EC8E6"/>
<path d="M395.046 246.909C387.254 243.109 375.088 247.382 372 248.473C376.539 251.164 375.896 265.673 384.185 268.364C390.029 270.182 394.569 268.055 395.046 260.164C401.552 256.527 400.578 249.582 395.046 246.909Z" fill="#37B4DD"/>
<path d="M384.185 268.364C375.896 265.673 376.539 251.164 372 248.473C376.062 248.8 381.906 252.273 395.046 260.164C394.569 268.054 390.176 270.254 384.185 268.364Z" fill="#6EC8E6"/>
<path d="M406.919 249H403.243V276.273H406.919V249Z" fill="#37B4DD"/>
<path d="M405.081 229C401.701 232.689 399.747 237.442 399.567 242.418C399.567 250.818 405.081 250.818 405.081 250.818C405.081 250.818 410.594 250.818 410.594 245.782C410.594 241.4 405.081 237.4 405.081 229Z" fill="#37B4DD"/>
<path d="M384.865 281.727L390.378 309H419.784L425.297 281.727H384.865Z" fill="#B2BDCB"/>
<path d="M425.297 287.182H384.865C383.85 287.182 383.027 286.367 383.027 285.364V278.091H427.135V285.364C427.065 286.338 426.282 287.113 425.297 287.182Z" fill="#7F92A8"/>
<path d="M512.474 419.184L534.743 442.077L515.978 454.193L506.79 436.709C505.751 434.732 505.806 432.357 506.935 430.429L512.474 419.184Z" fill="#99644C"/>
<path d="M537.405 444.949C540.932 448.755 543.501 453.347 544.897 458.345L554.583 493.023L540.883 499.64C540.811 497.604 527.799 476.69 527.799 476.69L515.977 454.195L534.742 442.078L537.405 444.949Z" fill="#37B4DD"/>
<path d="M508.741 376.768C507.323 373.377 505.314 370.233 502.77 367.496L494.373 358.464L492.956 359.318C477.14 368.848 472.891 389.883 483.768 404.805L492.313 416.526L508.003 438.896L522.741 430.167L511.163 389.21C511.204 384.899 510.373 380.672 508.741 376.768Z" fill="#1C84A7"/>
<path d="M555.323 493.844L554.169 491.58L543.081 496.574C541.819 497.142 540.831 498.185 540.335 499.477L538.963 503.037C538.6 503.982 537.97 504.801 537.151 505.398L530.911 509.934C528.908 511.391 528.195 514.048 529.199 516.311L530.094 518.327C530.266 518.714 530.719 518.888 531.104 518.717L560.618 505.611L555.323 493.844Z" fill="#1C84A7"/>
<path d="M546.284 511.481L562.843 504.127L562.118 502.452C561.126 500.163 559.73 498.073 557.997 496.279L554.627 492.792L542.994 504.071L546.284 511.481Z" fill="#1C84A7"/>
<path d="M561.344 507.521L533.782 519.76C532.376 520.384 530.73 519.75 530.105 518.344L562.759 503.845C563.384 505.251 562.75 506.896 561.344 507.521Z" fill="#DDF5FD"/>
<path opacity="0.25" d="M508.741 376.768C507.323 373.377 505.314 370.233 502.77 367.496L494.373 358.464L492.956 359.318C477.14 368.848 472.891 389.883 483.768 404.805L492.313 416.526L508.003 438.896L522.741 430.167L511.163 389.21C511.204 384.899 510.373 380.672 508.741 376.768Z" fill="#002652"/>
<path d="M475.241 311.01L491.516 314.862L496.141 298.1L487.242 296.766L479.678 294.708L478.196 300.153L475.241 311.01Z" fill="#99644C"/>
<path d="M479.277 281.654L488.703 288.095L496.891 276.114L487.465 269.673L479.277 281.654Z" fill="#99644C"/>
<path d="M485.761 291.029L492.151 295.396L508.528 271.433L502.138 267.066L485.761 291.029Z" fill="black"/>
<path d="M493.53 300.817L484.053 297.63L503.159 269.674C504.384 267.881 506.832 267.42 508.626 268.646L510.04 269.613C517.165 274.481 518.562 284.419 513.056 291.064L508.505 296.557C504.875 300.937 498.923 302.631 493.53 300.817Z" fill="#002652"/>
<path d="M483.504 268.085L479.598 273.801C479.456 274.008 479.355 274.242 479.302 274.487L478.773 276.89C478.594 277.696 477.932 278.307 477.112 278.416L475.1 277.8L471.379 283.246C468.183 287.922 470.436 294.356 475.849 296.017L495.124 301.933L483.504 268.085Z" fill="#99644C"/>
<path d="M473.797 286.454L472.479 280.142C472.182 278.716 473.483 277.472 474.894 277.836L480.782 279.35L473.797 286.454Z" fill="#99644C"/>
<path opacity="0.1" d="M479.032 297.065L481.622 297.361C482.464 297.458 482.852 298.462 482.291 299.098L477.646 304.373" fill="#002652"/>
<path d="M495.226 292.537L487.186 287.043L492.208 279.695L500.249 285.189C501.881 286.304 502.3 288.532 501.185 290.164L500.203 291.603C499.087 293.233 496.859 293.652 495.226 292.537Z" fill="#99644C"/>
<path d="M486.828 295.089L491.547 298.314L496.458 291.129L491.739 287.904L486.828 295.089Z" fill="#99644C"/>
<path d="M491.583 269.708L501.237 276.305L497.854 281.254C499.312 282.431 500.725 283.532 500.993 283.608C501.4 283.724 495.275 285.201 491.455 286.102C490.406 286.35 489.608 285.176 490.216 284.287L490.434 283.969C491.876 281.858 491.335 278.977 489.223 277.535L487.187 276.143L491.583 269.708Z" fill="#002652"/>
<path opacity="0.1" d="M480.504 275L482.729 276.52C482.987 276.697 483.164 276.969 483.222 277.277L483.515 278.834C483.709 279.867 482.557 280.62 481.69 280.026L478.999 278.186" fill="#002652"/>
<path opacity="0.1" d="M475.489 284.467L474.499 285.006C473.956 285.301 473.317 285.36 472.73 285.17L470.714 284.516L472.286 282.214L475.489 284.467Z" fill="#002652"/>
<path d="M504.328 265.501L503.138 264.687C496.115 259.888 486.531 261.69 481.731 268.713L481.238 269.436C480.556 270.433 480.812 271.794 481.809 272.477L498.426 283.833L505.758 273.107C507.464 270.612 506.823 267.206 504.328 265.501Z" fill="#002652"/>
<path d="M514.775 299.799C518.29 294.657 517.563 287.926 513.353 283.908C516.895 282.61 520.918 282.937 524.19 285.174C529.676 288.923 530.969 296.579 527.077 302.272C523.626 307.321 519.004 307.928 515.247 307.256C512.535 306.771 511.524 303.443 513.432 301.454C513.917 300.948 514.365 300.397 514.775 299.799Z" fill="#002652"/>
<path d="M514.594 290.312C515.045 290.54 515.608 290.413 515.916 289.991C517.753 287.461 518.575 284.765 518.429 281.751C518.4 281.172 517.909 280.724 517.328 280.753C516.749 280.781 516.302 281.273 516.33 281.853C516.45 284.37 515.759 286.629 514.214 288.759C513.872 289.228 513.976 289.885 514.447 290.225C514.495 290.257 514.544 290.287 514.594 290.312Z" fill="#37B4DD"/>
<path d="M449.532 301.032L411.884 271.037L405.318 279.631L427.776 304.275C429.006 305.503 430.315 306.649 431.697 307.705L443.217 316.507L451.215 306.038C452.534 304.311 451.259 302.35 449.532 301.032Z" fill="#99644C"/>
<path d="M443.178 316.477L499.191 331.959L500.521 327.083C502.979 318.064 497.207 308.869 488.016 307.163L447.519 299.647L443.178 316.477Z" fill="#6EC8E6"/>
<path d="M473.455 373.038L506.617 391.613L509.242 393.188C512.554 385.72 513.122 377.27 510.3 369.604L499.937 341.464L500.399 329.302C500.723 320.776 496.043 312.846 488.423 309.007L483.916 306.736C475.329 302.409 464.996 307.57 463.299 317.035L462.43 321.877C461.253 328.438 461.673 335.186 463.654 341.551L473.455 373.038Z" fill="#6EC8E6"/>
<path d="M499.393 421.685L511.189 450.99L489.203 454.932L487.47 435.257C487.274 433.032 488.241 430.862 490.026 429.519L499.393 421.685Z" fill="#99644C"/>
<path d="M512.539 454.666C514.325 459.538 514.924 464.766 514.283 469.915L509.844 505.646L494.652 506.468C495.371 504.561 491.433 480.248 491.433 480.248L489.203 454.934L511.189 450.992L512.539 454.666Z" fill="#37B4DD"/>
<path d="M510.399 504.75L510.259 502.213L498.098 502.295C496.714 502.303 495.389 502.858 494.412 503.839L491.718 506.54C491.003 507.258 490.095 507.752 489.105 507.966L481.563 509.591C479.142 510.113 477.415 512.255 477.418 514.731L477.421 516.936C477.422 517.359 477.766 517.702 478.188 517.701L510.482 517.653L510.399 504.75Z" fill="#1C84A7"/>
<path d="M494.997 517.223L513.116 517.197L513.13 515.371C513.149 512.877 512.718 510.398 511.859 508.058L510.189 503.506L494.986 509.115L494.997 517.223Z" fill="#1C84A7"/>
<path d="M510.371 519.694L480.214 519.738C478.676 519.74 477.427 518.494 477.425 516.956L513.154 516.905C513.155 518.442 511.91 519.691 510.371 519.694Z" fill="#DDF5FD"/>
<path d="M396.786 266.649C397.283 265.942 398.215 265.589 399.158 265.75C399.339 265.78 399.521 265.831 399.768 265.928L410.114 271.038C410.147 271.055 410.181 271.068 410.299 271.098C410.625 271.154 410.946 270.955 411.043 270.639L411.078 270.546C411.129 270.304 411.086 270.051 410.957 269.843L409.679 267.822C409.272 267.192 409.042 266.463 409.014 265.688C409.01 264.688 409.355 263.906 409.998 263.476L410.16 263.388C410.821 263.086 411.685 263.444 411.928 263.993L415.589 270.306L416.752 271.558C417.56 272.427 418.159 273.491 418.481 274.636L418.919 276.188C419.082 276.721 419.424 277.187 419.871 277.494L420.057 277.615C421.975 278.865 423.255 280.794 423.66 283.048C424.064 285.302 423.535 287.556 422.168 289.394L421.757 289.95L416.605 287.074L416.502 287.004C415.88 286.514 415.141 286.184 414.263 286.035C414.261 286.035 414.258 286.034 414.256 286.034L412.078 285.711C410.433 285.463 408.803 285.051 407.242 284.477L402.279 282.538L397.013 280.512L397.005 280.511C396.396 280.407 395.962 279.864 396.003 279.183C396.109 278.416 396.631 277.769 397.362 277.426L397.035 277.277C396.432 277.103 396.05 276.491 396.184 275.819C396.413 274.957 397.173 274.322 398.118 274.154L397.836 274.021C397.529 273.918 397.281 273.703 397.138 273.413C396.996 273.124 396.972 272.796 397.101 272.425C397.525 271.459 398.637 270.917 399.888 271.126L402.826 271.939L397.166 268.361C396.888 268.196 396.693 267.93 396.614 267.616C396.54 267.3 396.589 266.973 396.786 266.649Z" fill="#99644C"/>
<path d="M512.233 380.462C512.233 376.787 511.593 373.112 510.301 369.604L506.038 358.033L470.417 363.283L473.452 373.038L473.469 373.048L487.588 437.497L504.552 435.127L509.668 392.874C511.37 388.914 512.233 384.694 512.233 380.462Z" fill="#1C84A7"/>
<path d="M63.5244 564H99.8247L110.917 501.588H52.4326L63.5244 564Z" fill="#DDF5FD"/>
<path d="M63.5921 484.192C63.5921 488.341 68.1185 491.704 73.7027 491.704C79.2869 491.704 89.8584 487.21 89.8584 487.21C89.8584 487.21 79.2869 476.682 73.7027 476.682C68.1185 476.682 63.5921 480.044 63.5921 484.192Z" fill="#DDF5FD"/>
<path d="M125 476.049C125 480.197 120.474 483.56 114.889 483.56C109.305 483.56 98.7337 479.067 98.7337 479.067C98.7337 479.067 109.305 468.538 114.889 468.538C120.474 468.538 125 471.9 125 476.049Z" fill="#DDF5FD"/>
<path d="M104.337 439.705C104.337 443.853 99.8105 447.216 94.2263 447.216C88.6421 447.216 78.0706 442.723 78.0706 442.723C78.0706 442.723 88.6421 432.194 94.2263 432.194C99.8105 432.194 104.337 435.556 104.337 439.705Z" fill="#DDF5FD"/>
<path d="M85.5215 414.019C85.5215 417.476 81.7503 420.278 77.0978 420.278C72.4453 420.278 63.6374 416.533 63.6374 416.533C63.6374 416.533 72.4453 407.761 77.0978 407.761C81.7503 407.761 85.5215 410.562 85.5215 414.019Z" fill="#DDF5FD"/>
<path d="M105.295 383.948C105.295 387.058 101.901 389.58 97.7142 389.58C93.5276 389.58 85.601 386.211 85.601 386.211C85.601 386.211 93.5276 378.317 97.7142 378.317C101.901 378.317 105.295 380.837 105.295 383.948Z" fill="#DDF5FD"/>
<path d="M97.1538 355.062C97.1538 356.753 95.3085 358.124 93.0327 358.124C90.7569 358.124 86.4472 356.292 86.4472 356.292C86.4472 356.292 90.7569 352 93.0327 352C95.3085 352 97.1538 353.371 97.1538 355.062Z" fill="#DDF5FD"/>
<path d="M82.4178 461.012C82.4178 465.161 86.9442 468.524 92.5284 468.524C98.1126 468.524 108.684 464.03 108.684 464.03C108.684 464.03 98.1126 453.502 92.5284 453.502C86.9442 453.502 82.4178 456.864 82.4178 461.012Z" fill="#DDF5FD"/>
<path d="M40.9998 432.194C40.9998 436.343 45.5262 439.706 51.1104 439.706C56.6946 439.706 67.2661 435.212 67.2661 435.212C67.2661 435.212 56.6946 424.684 51.1104 424.684C45.5262 424.683 40.9998 428.046 40.9998 432.194Z" fill="#DDF5FD"/>
<path d="M59.0279 393.039C59.0279 396.322 62.6106 398.984 67.0301 398.984C71.4497 398.984 79.8159 395.426 79.8159 395.426C79.8159 395.426 71.4487 387.094 67.0291 387.094C62.6096 387.094 59.0279 389.755 59.0279 393.039Z" fill="#DDF5FD"/>
<path d="M69.6964 365.473C69.6964 368.756 73.279 371.418 77.6986 371.418C82.1182 371.418 90.4844 367.861 90.4844 367.861C90.4844 367.861 82.1171 359.528 77.6976 359.528C73.278 359.528 69.6964 362.189 69.6964 365.473Z" fill="#DDF5FD"/>
<path d="M78.2683 511.82C78.2683 511.82 78.5698 511.09 79.1355 509.721C79.6982 508.363 80.5381 506.37 81.7048 503.912C82.8765 501.459 84.391 498.53 86.442 495.451C87.4644 493.91 88.6714 492.372 90.0176 490.865L90.5328 490.305C90.6437 490.178 90.8978 489.937 91.0753 489.757C91.4676 489.364 91.8659 488.965 92.25 488.627C93.0083 487.919 93.8775 487.18 94.7558 486.441C96.5728 484.93 98.4644 483.357 100.423 481.728C102.404 480.026 104.423 478.079 106.153 475.706C106.982 474.495 107.803 473.237 108.432 471.849L108.677 471.334L108.778 471.11L108.822 470.987L108.911 470.741L109.268 469.752C109.519 469.145 109.724 468.313 109.919 467.514C110.326 465.925 110.376 464.305 110.256 462.644C110.003 460.995 109.537 459.345 108.648 457.932C107.774 456.532 106.72 455.264 105.484 454.261C104.278 453.214 102.966 452.348 101.626 451.541C98.9051 449.999 96.0676 448.722 93.1888 447.507C87.4322 445.118 81.4527 442.975 75.9814 440.076C73.274 438.635 70.6302 437.012 68.7365 434.985C68.4794 434.747 68.2616 434.489 68.0669 434.223C67.8854 433.971 67.6041 433.681 67.5003 433.471L67.1857 432.975L67.0284 432.728L66.9305 432.522C66.8035 432.235 66.6573 432.018 66.5363 431.684C65.9958 430.461 65.6237 429.129 65.3928 427.749C64.925 424.984 64.9502 422.062 65.1982 419.168C65.2597 418.443 65.3343 417.719 65.4221 416.994L65.4533 416.722L65.4614 416.655C65.4291 416.91 65.4594 416.686 65.4553 416.724L65.4805 416.585L65.5784 416.029L65.772 414.921C65.8244 414.519 65.9262 414.252 66.017 413.968L66.2771 413.112C66.4395 412.541 66.7621 411.943 66.986 411.362C69.158 406.743 73.4979 403.375 77.6432 399.934C79.7264 398.208 81.8268 396.474 83.7094 394.547C84.1883 394.083 84.63 393.561 85.0837 393.079L85.4195 392.712L85.5032 392.62L85.6615 392.437L85.6958 392.389L85.8329 392.201L86.3785 391.453L86.6497 391.082L86.932 390.605L87.4816 389.634C87.8789 388.97 88.0795 388.395 88.3467 387.796C89.3218 385.412 89.9218 383.103 90.3332 380.897C90.793 378.697 90.9583 376.584 91.0995 374.61C91.3335 370.656 91.0441 367.194 90.4905 364.402C89.9248 361.607 89.1211 359.488 88.3457 358.161C88.1854 357.816 87.9868 357.538 87.8063 357.304C87.6338 357.068 87.4886 356.871 87.3707 356.711C87.1387 356.397 87.0188 356.234 87.0188 356.234L86.6063 356.53C86.6063 356.53 86.688 356.706 86.8453 357.046C86.923 357.214 87.0198 357.424 87.1347 357.671C87.2557 357.914 87.3848 358.198 87.4685 358.554C87.9505 359.9 88.3346 361.983 88.4758 364.646C88.6029 367.315 88.4173 370.584 87.8083 374.253C87.4866 376.083 87.0782 378.018 86.5045 379.997C85.964 381.982 85.2158 384.016 84.2509 385.934C84.0088 386.399 83.7739 386.941 83.5137 387.29L83.1437 387.885C83.0792 387.986 83.0318 388.082 82.9551 388.191L82.6617 388.545L82.0708 389.258L81.9226 389.437L81.8853 389.482C82.1051 389.221 81.9236 389.432 81.9629 389.383L81.8843 389.458L81.5676 389.762C81.1371 390.164 80.7378 390.589 80.276 390.982C78.4942 392.595 76.4775 394.157 74.3308 395.805C72.1961 397.466 69.9263 399.221 67.7564 401.367C65.5995 403.499 63.5223 406.096 62.2085 409.208C61.9171 410.008 61.5662 410.742 61.3393 411.606L61.0055 412.905C60.8956 413.34 60.7797 413.79 60.7494 414.134L60.5951 415.249L60.5185 415.808L60.4993 415.948L60.4721 416.157L60.4671 416.23L60.4459 416.522C60.3884 417.298 60.343 418.082 60.3118 418.872C60.1978 422.028 60.2674 425.309 61.0196 428.627C61.4018 430.279 61.9493 431.945 62.7842 433.523C62.9657 433.908 63.2642 434.339 63.5082 434.739L63.7018 435.042L63.8793 435.275L64.2352 435.743C64.5539 436.194 64.8544 436.44 65.167 436.796C65.4715 437.135 65.7901 437.447 66.1319 437.719C68.8222 440.01 71.8412 441.367 74.8218 442.58C80.8164 444.929 86.8998 446.561 92.6009 448.927C95.4475 450.085 98.2194 451.391 100.663 453.065C101.864 453.915 103.041 454.789 103.982 455.84C104.975 456.844 105.737 457.99 106.27 459.172C106.826 460.354 106.975 461.618 107.027 462.839L106.943 463.77C106.916 464.077 106.903 464.381 106.808 464.689C106.651 465.297 106.556 465.919 106.318 466.468C106.114 467.032 105.959 467.568 105.607 468.235L105.152 469.183L105.039 469.42L104.982 469.538C105.058 469.366 104.985 469.519 104.994 469.494L104.964 469.546L104.725 469.954C104.141 471.066 103.386 472.069 102.631 473.046C99.498 476.891 95.511 479.994 91.9233 483.239C91.0249 484.055 90.19 484.883 89.345 485.768C88.9094 486.209 88.5454 486.624 88.1814 487.036C87.9847 487.262 87.8446 487.403 87.6056 487.694L87.0611 488.365C85.6202 490.14 84.5191 491.984 83.5632 493.728C82.6103 495.477 81.846 497.164 81.2369 498.752C80.6188 500.337 80.0965 501.802 79.7123 503.15C78.8986 505.832 78.4519 507.974 78.1675 509.441C77.9174 510.907 77.7833 511.688 77.7833 511.688L78.2683 511.82Z" fill="#DDF5FD"/>
<path d="M527.675 153.164L554.833 204.237C556.196 206.801 559.45 207.66 561.897 206.103L574.827 197.881L561.305 176.545L541.475 151.668L527.675 153.164Z" fill="#C78982"/>
<path d="M647.767 432.556L670.054 467.852L677.644 479.876L681.79 486.444L683.017 488.388L686.985 494.669L688.94 497.768L691.913 502.481L692.084 502.751C692.084 502.751 695.373 502.839 699.185 502.944C700.867 502.992 702.65 503.04 704.297 503.092C705.226 503.116 706.109 503.145 706.909 503.169C708.961 503.23 710.448 503.281 710.643 503.297L710.379 502.714L709.632 501.06L703.771 488.058L697.195 473.475L683.169 426.091C682.577 424.091 681.723 422.179 680.632 420.403L660.343 387.414L632.962 386.605L644.733 426.006C645.391 428.202 646.416 430.414 647.767 432.556Z" fill="#1C84A7"/>
<path d="M584.154 299.448L583.043 314.376L596.379 331.963L641.288 413.898C641.288 413.898 672.091 408.006 671.891 407.482L630.585 300.557L584.154 299.448Z" fill="#1C84A7"/>
<path d="M681.791 486.444L683.016 488.387L686.984 494.67L688.938 497.769L691.913 502.479L692.084 502.751C692.084 502.751 695.371 502.836 699.183 502.941C700.866 502.99 702.646 503.037 704.295 503.09C705.222 503.116 706.104 503.142 706.908 503.169C708.96 503.229 710.445 503.28 710.639 503.295L710.379 502.714L709.63 501.058L703.77 488.058L700.952 481.808L681.791 486.444Z" fill="#C78982"/>
<path d="M716.925 512.856H692.96L691.639 509.165C690.571 506.183 690.28 502.977 690.793 499.85L691.472 495.711L701.19 490.225L710.969 495.711L715.856 503.451C716.623 504.665 717.021 506.078 717.001 507.515L716.925 512.856Z" fill="#1C84A7"/>
<path d="M713.027 518H696.517C695.587 518 694.761 517.491 694.462 516.735L692.79 512.514H716.754L715.083 516.735C714.784 517.491 713.957 518 713.027 518Z" fill="#37B4DD"/>
<path d="M704.694 488.107H694.723C693.695 488.107 693.029 488.941 693.236 489.972L695.17 499.616C695.377 500.646 696.378 501.481 697.406 501.481H707.376C708.403 501.481 709.07 500.647 708.863 499.616L706.928 489.972C706.722 488.942 705.721 488.107 704.694 488.107Z" fill="#1C84A7"/>
<path d="M703.06 509.77H706.484C707.897 509.77 709.052 510.927 709.052 512.341C709.052 513.756 707.897 514.913 706.484 514.913H703.06C701.648 514.913 700.493 513.756 700.493 512.341C700.493 510.928 701.648 509.77 703.06 509.77Z" fill="#37B4DD"/>
<path d="M525.946 138.531L525.212 146.765C525.602 151.014 528.282 154.563 532.013 156.256C532.81 156.633 533.645 156.904 534.527 157.091C534.687 157.084 534.839 157.057 534.98 157.039L535.484 156.971L547.935 159.706L536.289 144.851L536.184 143.581C536.028 143.412 535.903 143.245 535.787 143.07L530.908 135.923C530.383 135.157 525.946 138.531 525.946 138.531Z" fill="#C78982"/>
<path d="M672.549 510.104V510.108C672.577 510.108 672.573 510.104 672.549 510.104Z" fill="#6EC8E6"/>
<path d="M555.027 200.358C553.742 202.514 554.473 205.307 556.649 206.554L592.264 226.951C598.086 230.433 605.623 228.529 609.1 222.698L610.048 221.109C612.217 217.472 611.031 212.762 607.399 210.589L563.856 185.551L555.027 200.358Z" fill="#6EC8E6"/>
<path d="M669.923 288.967L652.4 242.301C651.502 239.909 648.839 238.7 646.451 239.599L630.385 245.652L649.533 296.649C650.692 299.737 654.131 301.299 657.215 300.138L666.439 296.662C669.523 295.499 671.083 292.054 669.923 288.967Z" fill="#6EC8E6"/>
<path d="M651.027 260.704L653.337 252.504C655.559 244.617 652.731 236.172 646.21 231.223L595.145 199.381L580.592 291.291L623.275 296.606L651.027 260.704Z" fill="#6EC8E6"/>
<path d="M643.714 433.684L650.092 468.632L652.266 480.537L653.455 487.04L653.806 488.965L654.941 495.185L655.501 498.253L656.356 502.919L656.404 503.186C656.404 503.186 653.195 503.491 649.475 503.847C647.836 504.006 646.097 504.171 644.496 504.332C643.588 504.417 642.73 504.504 641.951 504.581C639.953 504.776 638.511 504.926 638.329 504.954L638.12 504.384L637.524 502.767L632.831 490.051L627.569 475.789L611.315 434.057L599.401 404.595L623.09 389.02L641.43 427.274C642.556 429.399 643.327 431.565 643.714 433.684Z" fill="#C78982"/>
<path d="M576.94 301.958L577.048 327.611L599.385 407.499C600.987 413.594 607.646 416.812 613.404 414.271C620.82 410.999 629.257 407.207 629.212 406.916L618.243 300.484L576.94 301.958Z" fill="#1C84A7"/>
<path d="M612.84 512.583L608.467 509.975C607.261 509.255 606.422 508.025 606.236 506.705C605.964 504.764 607.158 503.118 609.038 502.843L617.33 501.632C622.571 500.867 626.895 497.813 629.179 493.262L631.914 487.813L635.552 489.863C636.429 490.357 636.881 491.38 636.603 492.24L635.807 494.701L640.795 496.663C644.174 497.991 647.757 497.38 650.026 495.087L653.529 491.547C654.142 490.927 655.313 491.392 655.493 492.328L658.554 508.255L658.123 512.004L612.84 512.583Z" fill="#1C84A7"/>
<path d="M634.691 310.164L576.998 321.066L576.94 268.07C577.098 254.757 581.779 200.361 581.779 200.361L627.131 237.562L628.485 291.724L634.691 310.164Z" fill="#6EC8E6"/>
<path d="M659.928 509.303L659.408 510.88C658.471 513.715 655.877 515.525 652.747 515.525H619.472C618.833 515.525 618.181 515.359 617.579 515.046L609.629 510.894H637.028C637.513 510.894 637.952 510.703 638.253 510.365C639.76 508.662 641.966 507.708 644.404 507.708H658.693C659.512 507.707 660.173 508.561 659.928 509.303Z" fill="#37B4DD"/>
<path d="M623.989 196.915L603.366 196.928L603.391 239.166C603.392 241.071 605.806 241.888 606.96 240.373L624.003 218L623.989 196.915Z" fill="#C78982"/>
<path d="M519.295 131.392C519.351 131.387 519.572 131.31 519.572 131.31C519.572 131.31 522.454 130.554 522.452 130.568C522.726 130.5 523.543 130.299 523.912 130.217C524.245 130.128 524.527 130.102 524.872 130.127C525.843 130.15 528.076 130.282 528.996 130.367C529.802 130.462 530.506 130.682 531.17 131.076C532.317 131.579 536.464 133.834 536.464 133.834L534.69 139.559L531.914 136.596L527.654 140.363C527.654 140.363 527.271 141.14 526.495 142.582C525.718 144.024 523.059 144.217 523.559 142.857L524.318 140.619L524.339 140.636C524.389 140.503 524.565 140.039 524.639 139.79C524.73 139.553 524.873 139.255 525.078 139.007C525.425 138.587 525.96 137.861 526.462 137.185L525.408 137.664C525.408 137.664 524.675 138.36 523.432 139.676C522.188 140.99 519.281 140.351 520.185 139.067L521.704 137.042C521.96 136.732 522.108 136.49 522.415 136.12C522.615 135.816 522.875 135.563 523.142 135.366C523.648 134.979 524.53 134.337 525.333 133.754L524.235 133.667L522.156 133.976C521.648 134.023 521.135 134.015 520.662 133.831C519.187 133.285 518.593 131.801 519.295 131.392Z" fill="#C78982"/>
<path opacity="0.1" d="M519.295 131.392C519.351 131.387 519.572 131.31 519.572 131.31C519.572 131.31 522.454 130.554 522.452 130.568C522.726 130.5 523.543 130.299 523.912 130.217C524.245 130.128 524.527 130.102 524.872 130.127C525.843 130.15 528.076 130.282 528.996 130.367C529.802 130.462 530.506 130.682 531.17 131.076C532.317 131.579 536.464 133.834 536.464 133.834L534.69 139.559L531.914 136.596L527.654 140.363C527.654 140.363 527.271 141.14 526.495 142.582C525.718 144.024 523.059 144.217 523.559 142.857L524.318 140.619L524.339 140.636C524.389 140.503 524.565 140.039 524.639 139.79C524.73 139.553 524.873 139.255 525.078 139.007C525.425 138.587 525.96 137.861 526.462 137.185L525.408 137.664C525.408 137.664 524.675 138.36 523.432 139.676C522.188 140.99 519.281 140.351 520.185 139.067L521.704 137.042C521.96 136.732 522.108 136.49 522.415 136.12C522.615 135.816 522.875 135.563 523.142 135.366C523.648 134.979 524.53 134.337 525.333 133.754L524.235 133.667L522.156 133.976C521.648 134.023 521.135 134.015 520.662 133.831C519.187 133.285 518.593 131.801 519.295 131.392Z" fill="#002652"/>
<path d="M526.691 137.191C526.691 137.191 525.291 133.786 524.023 130.596C522.757 127.406 525.938 126.708 527.345 128.972L531.1 135.009L526.691 137.191Z" fill="#C78982"/>
<path d="M522.855 125.011L522.912 125.005L522.969 125L523.002 125.007L525.536 125.045C526.338 125.084 527.077 125.072 527.59 125.08C527.934 125.105 528.221 125.134 528.576 125.272C529.517 125.583 531.577 126.302 532.461 126.619C533.171 126.895 533.834 127.288 534.344 127.869L540.673 134.633C541.688 135.736 542.067 137.355 541.517 138.776L538.762 146.452C537.936 148.583 538.035 150.855 538.903 152.828L530.088 156.88C529.993 156.747 529.908 156.627 529.819 156.5C529.99 156.776 530.094 156.935 530.094 156.935C526.945 152.497 526.791 151.536 525.924 149.536L525.599 148.704C523.925 144.838 528.208 141.138 526.687 137.192L531.079 134.965L532.013 136.418C532.946 137.871 535.487 137.633 534.945 136.714C534.404 135.794 530.886 129.85 530.886 129.85L527.056 128.498L524.982 128.236C524.463 128.17 523.99 127.987 523.563 127.685C522.223 126.782 522.075 125.198 522.855 125.011Z" fill="#C78982"/>
<path d="M549.92 201.62L555.399 207.196C556.169 207.98 557.427 207.989 558.21 207.219L573.556 192.091C574.339 191.319 574.349 190.059 573.579 189.275L568.101 183.699C567.331 182.915 566.072 182.906 565.29 183.676L549.943 198.804C549.161 199.575 549.151 200.836 549.92 201.62Z" fill="#6EC8E6"/>
<path d="M644.199 286.538L646.81 295.136C648.359 300.234 653.741 303.11 658.83 301.558L665.061 299.66C670.008 298.152 672.798 292.914 671.293 287.959L668.602 279.101C668.282 278.049 667.172 277.455 666.121 277.776L645.522 284.054C644.471 284.374 643.878 285.486 644.199 286.538Z" fill="#6EC8E6"/>
<path d="M620.061 185.138L596.174 176.532C598.39 170.362 604.671 166.641 611.136 167.666L617.632 168.697C621.725 169.346 624.217 173.566 622.815 177.471L620.061 185.138Z" fill="#002652"/>
<path d="M611.096 175.696L609.153 181.107L604.337 179.372L597.836 197.476L596.03 196.826L592.103 180.115L599.768 171.295L611.096 175.696Z" fill="#002652"/>
<path d="M598.937 179.197L591.373 199.88C590.554 202.354 592.379 204.908 594.981 204.93L619.104 205.131L598.937 179.197Z" fill="#C78982"/>
<path d="M596.102 192.399L592.469 190.99C590.955 190.403 590.865 188.292 592.322 187.577L598.699 184.447L596.102 192.399Z" fill="#C78982"/>
<path d="M615.691 170.644L616.167 170.803C618.177 171.471 619.267 173.644 618.6 175.657L614.409 188.316L597.556 182.718L598.73 179.173C601.062 172.126 608.656 168.308 615.691 170.644Z" fill="#C78982"/>
<path d="M604.436 197.262L593.871 193.752L598.325 180.3L608.89 183.81L604.436 197.262Z" fill="#C78982"/>
<path d="M621.076 169.649L626.033 171.435C631.451 173.387 634.262 179.368 632.314 184.794L623.494 209.358L591.964 197.998L598.284 180.399C601.614 171.127 611.818 166.314 621.076 169.649Z" fill="#C78982"/>
<path opacity="0.1" d="M597.593 183.028L599.992 183.892C600.271 183.993 600.498 184.2 600.625 184.469L601.264 185.829C601.687 186.731 600.812 187.696 599.875 187.358L596.971 186.312" fill="#002652"/>
<path d="M609.293 191.385L607.957 195.106C606.725 198.536 603.573 200.904 599.94 201.127C600.906 198.436 599.511 195.47 596.825 194.502L593.632 193.352L590.051 203.323C589.164 205.795 591.04 208.388 593.662 208.312L604.056 208.012C605.587 207.969 606.934 206.99 607.452 205.547L613.2 189.543C611.612 188.971 609.864 189.796 609.293 191.385Z" fill="#002652"/>
<path d="M595.304 200.226L592.691 199.914C591.996 199.832 591.559 199.123 591.795 198.464L592.844 195.542L595.156 196.376C596.395 196.822 597.037 198.189 596.592 199.429C596.402 199.962 595.867 200.293 595.304 200.226Z" fill="#C78982"/>
<path d="M607.918 167.798L603.92 178.931C603.143 181.095 604.264 183.481 606.425 184.26L610.37 185.681C612.457 186.432 613.542 188.738 612.79 190.829L609.457 200.112C608.781 201.996 609.756 204.072 611.637 204.75C612.54 205.076 613.536 205.028 614.404 204.619L632.511 196.078C633.515 195.605 633.946 194.406 633.472 193.4L627.709 177.341C625.968 172.492 621.587 169.088 616.465 168.604L607.918 167.798Z" fill="#002652"/>
<path d="M620.26 169.345L631.351 173.342C637.122 175.422 640.119 181.794 638.043 187.575L631.283 206.398C630.987 207.224 630.156 207.731 629.288 207.616L607.549 204.739L620.26 169.345Z" fill="#002652"/>
<path d="M620.876 187.995L620.552 187.878C618.068 186.983 615.329 188.275 614.435 190.764L611.318 199.446L615.711 198.539C617.505 198.169 619.039 197.011 619.889 195.385L622.104 191.147C622.733 189.941 622.154 188.456 620.876 187.995Z" fill="#C78982"/>
<path d="M681.685 486.274L699.982 481.621L668.674 421.415L645.766 428.735L670.243 480.862C672.27 485.176 677.069 487.448 681.685 486.274Z" fill="#1C84A7"/>
<path d="M632.305 484.713L652.39 482.464L624.422 402.273L600.94 407.456L621.667 477.643C623.035 482.27 627.518 485.249 632.305 484.713Z" fill="#1C84A7"/>
<path d="M629.689 481.532L627.569 475.788L611.315 434.056L599.401 404.594L623.09 389.018L641.43 427.272C642.555 429.399 643.327 431.565 643.714 433.683L650.092 468.632L652.266 480.536L652.448 481.531H629.689V481.532Z" fill="#1C84A7"/>
<path d="M621.711 293.468L659.366 281.572C661.202 280.993 663.206 281.541 664.493 282.975L667.254 286.053C670.261 289.405 669.986 294.563 666.64 297.576L662.726 301.098C661.839 301.898 660.69 302.345 659.497 302.357L629.012 302.669L621.711 293.468Z" fill="#C78982"/>
<path d="M591.205 304.098C591.205 304.098 591.205 304.104 591.205 304.109C591.166 304.372 591.344 304.618 591.606 304.663L600.382 306.061C601.325 306.212 602.292 306.151 603.212 305.882L607.248 304.741L609.57 305.927C610.38 306.346 611.318 306.441 612.194 306.206L619.775 304.199L619.836 304.182C620.105 304.12 620.366 304.071 620.635 304.037L620.629 304.026L636.795 301.459L625.703 294.33C623.699 292.021 622.075 291.886 619.903 291.69L616.085 291.354C614.7 291.271 613.321 291.561 612.087 292.193C611.334 292.59 610.53 292.875 609.693 293.043C607.332 293.546 603.63 294.413 603.63 294.413C603.021 294.609 602.62 295.174 602.62 295.805V295.945C602.681 296.727 603.356 297.309 604.138 297.253C604.925 297.202 609.62 296.951 611.088 296.901C611.094 296.901 611.099 296.901 611.099 296.901C611.339 296.901 611.552 297.046 611.635 297.27C611.719 297.488 611.646 297.734 611.462 297.879L610.011 299.014L601.246 302.7L593.106 302.576C592.202 302.565 591.409 303.185 591.209 304.069L591.205 304.098Z" fill="#C78982"/>
<path d="M532.199 128.86L528.694 126.813L513.513 152.807L517.017 154.854L532.199 128.86Z" fill="#6EC8E6"/>
<path d="M523.71 155.593L509.697 147.409C501.89 148.097 496.054 155.015 496.662 162.859C497.27 170.703 504.092 176.503 511.899 175.815C519.706 175.127 525.542 168.21 524.935 160.366C524.806 158.713 524.392 157.097 523.71 155.593Z" fill="#CCD4DC"/>
<path d="M563.572 88.5562C563.572 88.5562 539.735 107.909 532.144 120.906L527.314 129.176L534.269 125.316C534.269 125.316 549.026 105.413 563.572 88.5562Z" fill="#37B4DD"/>
<path d="M528.694 126.813C528.694 126.813 544.722 88.6379 543.71 76.9563C544.818 93.9602 540.886 110.963 532.409 125.815L528.694 126.813Z" fill="#37B4DD"/>
<path d="M522.633 91.5837C522.633 91.5837 535.594 114.999 526.623 130.358L532.41 125.815C532.41 125.815 538.699 109.682 522.633 91.5837Z" fill="#37B4DD"/>
<path d="M524.078 134.715L527.313 129.176C529.384 125.632 534.481 122.27 547.011 116.912C554.352 113.812 561.348 109.93 567.876 105.33C567.876 105.33 553.225 123.213 532.199 128.861C528.878 129.752 525.989 131.835 524.078 134.715Z" fill="#37B4DD"/>
<path d="M339.892 144.523L335.459 144.391C335.721 136.392 331.902 128.804 325.309 124.219L327.88 120.604C335.672 126.062 340.184 135.048 339.892 144.523Z" fill="#37B4DD"/>
<path d="M339.892 144.523C339.599 135.048 344.111 126.062 351.904 120.604L354.475 124.219C347.841 128.831 344.018 136.478 344.324 144.523H339.892Z" fill="#37B4DD"/>
<path d="M358.73 104.841C368.281 104.841 379.185 112.314 382 114.342C375.905 116.701 371.805 124.064 361.012 125.475C353.81 126.379 352.147 123.778 352.147 123.778C352.147 123.778 346.452 123.227 346.452 114.96C346.54 110.683 350.175 104.841 358.73 104.841Z" fill="#37B4DD"/>
<path d="M361.611 137.733C371.916 136.3 375.817 116.701 382 114.343C377.191 113.637 369.634 116.547 352.236 123.778C348.336 134.426 354.054 138.901 361.611 137.733Z" fill="#6EC8E6"/>
<path d="M327.791 106.715C318.395 102.107 303.723 107.288 300 108.611C305.474 111.873 304.698 129.466 314.694 132.728C321.741 134.933 327.215 132.354 327.791 122.786C335.637 118.377 334.462 109.956 327.791 106.715Z" fill="#37B4DD"/>
<path d="M314.694 132.728C304.698 129.466 305.474 111.873 300 108.611C304.898 109.007 311.945 113.218 327.791 122.786C327.215 132.354 321.918 135.021 314.694 132.728Z" fill="#6EC8E6"/>
<path d="M342.108 109.25H337.676V142.318H342.108V109.25Z" fill="#37B4DD"/>
<path d="M339.892 85C335.816 89.473 333.46 95.2357 333.243 101.27C333.243 111.455 339.892 111.455 339.892 111.455C339.892 111.455 346.54 111.455 346.54 105.348C346.54 100.035 339.892 95.185 339.892 85Z" fill="#37B4DD"/>
<path d="M315.514 148.932L322.162 182H357.622L364.27 148.932H315.514Z" fill="#B2BDCB"/>
<path d="M364.27 155.545H315.514C314.29 155.545 313.297 154.558 313.297 153.341V144.523H366.487V153.341C366.402 154.523 365.458 155.462 364.27 155.545Z" fill="#7F92A8"/>
<path d="M342.059 340.625H338V370.727H342.059V340.625Z" fill="#6EC8E6"/>
<path d="M348.211 367.991H331.984C325.589 372.522 324.038 381.439 328.519 387.906C333 394.372 341.816 395.941 348.211 391.409C354.605 386.878 356.156 377.961 351.676 371.495C350.731 370.132 349.558 368.946 348.211 367.991Z" fill="#CCD4DC"/>
<path d="M348.824 290C348.824 290 338 318.733 338 333.784V343.362L342.059 336.521C342.059 336.521 344.765 311.892 348.824 290Z" fill="#37B4DD"/>
<path d="M338 340.625C338 340.625 332.588 299.577 325.823 290C335.355 304.124 340.534 320.789 340.705 337.89L338 340.625Z" fill="#37B4DD"/>
<path d="M315 313.261C315 313.261 338.001 326.943 338.001 344.731L340.707 337.889C340.706 337.889 338.001 320.786 315 313.261Z" fill="#37B4DD"/>
<path d="M338 349.776V343.362C338 339.257 340.707 333.784 348.824 322.838C353.6 316.458 357.683 309.578 361.001 302.314C361.001 302.314 357.368 325.145 342.06 340.625C339.642 343.07 338.198 346.326 338 349.776Z" fill="#37B4DD"/>
<path d="M279.081 224.091L275.406 223.982C275.622 217.385 272.456 211.127 266.988 207.345L269.12 204.364C275.582 208.865 279.324 216.276 279.081 224.091Z" fill="#37B4DD"/>
<path d="M279.081 224.091C278.838 216.276 282.58 208.865 289.042 204.364L291.174 207.345C285.673 211.149 282.503 217.456 282.757 224.091H279.081Z" fill="#37B4DD"/>
<path d="M294.703 191.364C302.624 191.364 311.666 197.527 314 199.2C308.946 201.145 305.546 207.218 296.596 208.382C290.623 209.127 289.244 206.982 289.244 206.982C289.244 206.982 284.521 206.527 284.521 199.709C284.595 196.182 287.609 191.364 294.703 191.364Z" fill="#37B4DD"/>
<path d="M297.092 218.491C305.638 217.309 308.873 201.146 314 199.2C310.012 198.618 303.745 201.018 289.318 206.982C286.083 215.764 290.825 219.455 297.092 218.491Z" fill="#6EC8E6"/>
<path d="M269.046 192.909C261.254 189.109 249.088 193.382 246 194.473C250.539 197.164 249.896 211.673 258.185 214.364C264.029 216.182 268.569 214.055 269.046 206.164C275.552 202.527 274.578 195.582 269.046 192.909Z" fill="#37B4DD"/>
<path d="M258.185 214.364C249.896 211.673 250.539 197.164 246 194.473C250.062 194.8 255.906 198.273 269.046 206.164C268.569 214.054 264.176 216.254 258.185 214.364Z" fill="#6EC8E6"/>
<path d="M280.919 195H277.243V222.273H280.919V195Z" fill="#37B4DD"/>
<path d="M279.081 175C275.701 178.689 273.747 183.442 273.567 188.418C273.567 196.818 279.081 196.818 279.081 196.818C279.081 196.818 284.594 196.818 284.594 191.782C284.594 187.4 279.081 183.4 279.081 175Z" fill="#37B4DD"/>
<path d="M258.865 227.727L264.378 255H293.784L299.297 227.727H258.865Z" fill="#B2BDCB"/>
<path d="M299.297 233.182H258.865C257.85 233.182 257.027 232.367 257.027 231.364V224.091H301.135V231.364C301.065 232.338 300.282 233.113 299.297 233.182Z" fill="#7F92A8"/>
<path d="M352.648 416.096H347.001V457.776H352.648V416.096Z" fill="#6EC8E6"/>
<path d="M361.207 453.987H338.63C329.733 460.261 327.575 472.607 333.809 481.561C340.043 490.516 352.31 492.687 361.207 486.413C370.103 480.139 372.261 467.793 366.027 458.839C364.713 456.952 363.081 455.309 361.207 453.987Z" fill="#CCD4DC"/>
<path d="M362.06 346C362.06 346 347.001 385.785 347.001 406.624V419.886L352.648 410.413C352.648 410.413 356.413 376.312 362.06 346Z" fill="#37B4DD"/>
<path d="M347.001 416.096C347.001 416.096 339.47 359.261 330.059 346C343.321 365.557 350.526 388.631 350.764 412.309L347.001 416.096Z" fill="#37B4DD"/>
<path d="M315 378.207C315 378.207 347.001 397.153 347.001 421.781L350.766 412.309C350.764 412.309 347.001 388.627 315 378.207Z" fill="#37B4DD"/>
<path d="M347.001 428.767V419.886C347.001 414.202 350.766 406.624 362.06 391.468C368.705 382.635 374.385 373.107 379.002 363.05C379.002 363.05 373.946 394.662 352.649 416.096C349.285 419.481 347.275 423.99 347.001 428.767Z" fill="#37B4DD"/>
<path d="M295.258 414.715L280.454 406.008L288.915 390.26L296.462 395.594L303.533 399.442L300.77 404.543L295.258 414.715Z" fill="#99644C"/>
<path d="M315.519 375.293L303.958 373.38L301.531 388.107L313.092 390.02L315.519 375.293Z" fill="#99644C"/>
<path d="M306.486 362.926L298.647 361.629L293.794 391.084L301.633 392.381L306.486 362.926Z" fill="black"/>
<path d="M288.924 394.136L298.215 398.505L303.878 364.142C304.241 361.938 302.752 359.856 300.553 359.491L298.818 359.204C290.08 357.758 281.991 364.152 281.361 373.005L280.839 380.324C280.423 386.161 283.637 391.651 288.924 394.136Z" fill="#002652"/>
<path d="M319.583 376.934L318.426 383.958C318.384 384.213 318.293 384.459 318.158 384.68L316.847 386.842C316.407 387.568 316.465 388.493 316.995 389.157L318.925 390.13L317.821 396.823C316.875 402.57 310.638 405.751 305.444 403.138L286.95 393.832L319.583 376.934Z" fill="#99644C"/>
<path d="M313.75 397.488L319.206 393.733C320.438 392.885 320.355 391.034 319.051 390.303L313.609 387.243L313.75 397.488Z" fill="#99644C"/>
<path opacity="0.1" d="M302.34 401.652L300.209 400.031C299.516 399.504 298.517 399.975 298.48 400.848L298.183 408.071" fill="#002652"/>
<path d="M293.54 386.775L303.403 388.407L304.891 379.375L295.029 377.743C293.027 377.411 291.136 378.77 290.805 380.776L290.513 382.543C290.183 384.548 291.537 386.443 293.54 386.775Z" fill="#99644C"/>
<path d="M299.417 385.808L293.629 384.85L292.174 393.682L297.962 394.64L299.417 385.808Z" fill="#99644C"/>
<path d="M312.438 372.396L300.598 370.437L299.596 376.521C297.678 376.359 295.85 376.173 295.597 376.039C295.212 375.836 298.709 381.289 300.902 384.674C301.505 385.604 302.93 385.299 303.11 384.205L303.173 383.815C303.601 381.219 306.047 379.463 308.637 379.892L311.134 380.305L312.438 372.396Z" fill="#002652"/>
<path opacity="0.1" d="M316.903 384.205L314.175 383.753C313.858 383.7 313.533 383.777 313.273 383.964L311.95 384.913C311.073 385.543 311.394 386.921 312.458 387.097L315.759 387.644" fill="#002652"/>
<path opacity="0.1" d="M313.905 394.808L314.258 395.912C314.451 396.517 314.883 397.014 315.454 397.291L317.414 398.238L317.88 395.409L313.905 394.808Z" fill="#002652"/>
<path d="M305.971 360.207L307.431 360.448C316.045 361.874 321.875 370.026 320.453 378.66L320.307 379.547C320.104 380.773 318.949 381.603 317.725 381.401L297.342 378.029L299.514 364.843C300.02 361.778 302.91 359.702 305.971 360.207Z" fill="#002652"/>
<path d="M273.888 378.276C274.93 371.956 280.243 367.469 286.219 367.474C284.513 363.991 281.296 361.375 277.281 360.711C270.552 359.597 264.162 364.369 263.01 371.368C261.987 377.574 264.985 381.312 268.248 383.481C270.604 385.049 273.716 383.294 273.711 380.459C273.711 379.74 273.768 379.012 273.888 378.276Z" fill="#002652"/>
<path d="M280.666 371.422C280.169 371.27 279.841 370.776 279.913 370.244C280.345 367.057 281.649 364.468 283.895 362.332C284.326 361.922 285.009 361.938 285.419 362.372C285.83 362.805 285.811 363.488 285.379 363.899C283.502 365.685 282.413 367.856 282.048 370.537C281.969 371.128 281.425 371.543 280.835 371.461C280.777 371.451 280.721 371.438 280.666 371.422Z" fill="#37B4DD"/>
<path d="M308.005 453.235L269.774 407.357L273.768 404.039C281.155 397.902 292.198 399.399 297.691 407.283L321.896 442.015L308.005 453.235Z" fill="#6EC8E6"/>
<path d="M266.142 467.712L223.757 469.531C224.171 461.139 227.829 453.239 233.957 447.504L256.453 426.451L261.648 415.066C265.289 407.085 273.241 401.967 281.998 401.967H287.178C297.048 401.967 304.135 411.49 301.318 420.97L299.877 425.819C297.925 432.391 294.424 438.395 289.668 443.324L266.142 467.712Z" fill="#6EC8E6"/>
<path d="M242.612 496.074L301.059 514.844C309.687 517.616 318.917 512.819 321.63 504.156L321.838 503.49C323.789 497.261 321.003 490.525 315.227 487.504L241.856 449.131C237.405 447.266 232.841 448.765 229.561 451.814C227.648 453.593 226.328 455.918 225.547 458.413L224.634 461.328C220.075 475.893 228.106 491.414 242.612 496.074Z" fill="#6EC8E6"/>
<path d="M318.923 502.166L294.636 490.494L288.451 512.616L305.573 515.801C309.576 516.546 313.678 515.169 316.425 512.158L320.08 508.152C321.795 506.273 321.214 503.268 318.923 502.166Z" fill="#99644C"/>
<path d="M291.012 488.752C286.209 486.443 280.927 485.317 275.602 485.466L238.659 486.497L236.329 501.971C238.348 501.422 262.804 507.844 262.804 507.844L288.45 512.617L294.635 490.495L291.012 488.752Z" fill="#37B4DD"/>
<path d="M241.113 486.137H243.88L239.222 498.898C238.734 500.235 237.739 501.325 236.453 501.93L232.909 503.6C231.968 504.042 231.176 504.749 230.626 505.633L226.442 512.37C225.099 514.532 222.43 515.46 220.04 514.597L217.91 513.828C217.501 513.68 217.29 513.229 217.437 512.82L228.676 481.573L241.113 486.137Z" fill="#1C84A7"/>
<path d="M223.724 496.714L230.03 479.182L231.799 479.803C234.215 480.651 236.459 481.929 238.423 483.574L242.242 486.773L231.553 499.542L223.724 496.714Z" fill="#1C84A7"/>
<path d="M226.666 480.972L216.17 510.151C215.635 511.64 216.405 513.281 217.89 513.818L230.325 479.248C228.84 478.711 227.202 479.483 226.666 480.972Z" fill="#DDF5FD"/>
<path d="M359.886 407.865C359.492 407.068 358.603 406.563 357.621 406.578C357.433 406.581 357.24 406.603 356.975 406.663L345.677 410.224C345.64 410.236 345.603 410.244 345.479 410.256C345.14 410.262 344.847 410.01 344.797 409.672L344.777 409.572C344.763 409.318 344.846 409.067 345.011 408.877L346.625 407.025C347.137 406.449 347.486 405.744 347.635 404.961C347.797 403.946 347.57 403.097 346.985 402.557L346.834 402.442C346.211 402.029 345.279 402.257 344.945 402.778L340.237 408.617L338.86 409.706C337.903 410.462 337.129 411.449 336.622 412.561C336.622 412.561 335.349 414.34 334.764 415.248C333.074 417.865 329.463 424.897 330.559 426.982L330.89 427.611L336.568 425.501L336.683 425.446C337.391 425.045 338.193 424.827 339.107 424.814C339.109 424.814 339.113 424.814 339.115 424.814L341.376 424.828C343.082 424.835 344.8 424.675 346.475 424.336L351.814 423.149L357.474 421.92H357.482C358.116 421.911 358.641 421.428 358.708 420.729C358.721 419.932 358.294 419.193 357.607 418.728L357.962 418.627C358.601 418.548 359.084 417.987 359.055 417.282C358.959 416.37 358.287 415.604 357.356 415.284L357.663 415.195C357.99 415.138 358.275 414.959 358.466 414.687C358.657 414.415 358.732 414.085 358.66 413.688C358.382 412.639 357.34 411.913 356.038 411.928L352.931 412.291L359.234 409.548C359.541 409.423 359.781 409.183 359.911 408.877C360.033 408.565 360.035 408.226 359.886 407.865Z" fill="#99644C"/>
<path d="M306.83 446.599L340.152 409.442L348.408 416.877L330.44 446.064C329.434 447.541 328.33 448.948 327.137 450.279L322.613 455.323C319.619 458.662 314.489 458.937 311.157 455.935L307.133 452.31C305.477 450.818 305.339 448.26 306.83 446.599Z" fill="#99644C"/>
<path d="M456.325 185.818L453.622 185.736C453.781 180.789 451.453 176.095 447.433 173.259L449 171.023C453.752 174.399 456.503 179.957 456.325 185.818Z" fill="#37B4DD"/>
<path d="M456.324 185.818C456.146 179.957 458.897 174.399 463.648 171.023L465.216 173.259C461.171 176.112 458.84 180.842 459.027 185.818H456.324Z" fill="#37B4DD"/>
<path d="M467.811 161.273C473.635 161.273 480.284 165.895 482 167.15C478.284 168.609 475.784 173.164 469.203 174.036C464.811 174.595 463.797 172.986 463.797 172.986C463.797 172.986 460.324 172.645 460.324 167.532C460.378 164.886 462.594 161.273 467.811 161.273Z" fill="#37B4DD"/>
<path d="M469.568 181.618C475.851 180.732 478.23 168.609 482 167.15C479.068 166.714 474.459 168.514 463.851 172.986C461.473 179.573 464.959 182.341 469.568 181.618Z" fill="#6EC8E6"/>
<path d="M448.946 162.432C443.216 159.582 434.27 162.786 432 163.604C435.338 165.623 434.865 176.504 440.959 178.523C445.257 179.886 448.595 178.291 448.946 172.373C453.73 169.645 453.014 164.436 448.946 162.432Z" fill="#37B4DD"/>
<path d="M440.959 178.523C434.865 176.504 435.338 165.623 432 163.604C434.986 163.85 439.284 166.454 448.946 172.373C448.595 178.291 445.365 179.941 440.959 178.523Z" fill="#6EC8E6"/>
<path d="M457.676 164H454.973V184.455H457.676V164Z" fill="#37B4DD"/>
<path d="M456.325 149C453.839 151.767 452.403 155.331 452.271 159.064C452.271 165.364 456.325 165.364 456.325 165.364C456.325 165.364 460.379 165.364 460.379 161.586C460.379 158.3 456.325 155.3 456.325 149Z" fill="#37B4DD"/>
<path d="M441.459 188.545L445.514 209H467.135L471.189 188.545H441.459Z" fill="#B2BDCB"/>
<path d="M471.189 192.636H441.459C440.713 192.636 440.108 192.025 440.108 191.273V185.818H472.54V191.273C472.489 192.004 471.913 192.584 471.189 192.636Z" fill="#7F92A8"/>
<path d="M300.703 315.955L295.514 315.799C295.82 306.399 291.349 297.481 283.63 292.092L286.64 287.843C295.763 294.258 301.045 304.819 300.703 315.955Z" fill="#37B4DD"/>
<path d="M300.703 315.955C300.36 304.819 305.643 294.258 314.765 287.843L317.775 292.092C310.01 297.513 305.534 306.5 305.892 315.955H300.703Z" fill="#37B4DD"/>
<path d="M322.757 269.318C333.94 269.318 346.705 278.101 350 280.485C342.865 283.257 338.065 291.911 325.429 293.569C316.997 294.631 315.051 291.574 315.051 291.574C315.051 291.574 308.383 290.926 308.383 281.21C308.487 276.184 312.742 269.318 322.757 269.318Z" fill="#37B4DD"/>
<path d="M326.13 307.975C338.195 306.291 342.761 283.257 350 280.485C344.37 279.656 335.522 283.076 315.155 291.574C310.588 304.088 317.282 309.348 326.13 307.975Z" fill="#6EC8E6"/>
<path d="M286.536 271.521C275.535 266.106 258.359 272.194 254 273.749C260.409 277.583 259.501 298.259 271.202 302.093C279.453 304.684 285.862 301.653 286.536 290.408C295.721 285.226 294.346 275.329 286.536 271.521Z" fill="#37B4DD"/>
<path d="M271.202 302.093C259.501 298.259 260.409 277.583 254 273.749C259.734 274.215 267.985 279.164 286.536 290.408C285.862 301.653 279.661 304.788 271.202 302.093Z" fill="#6EC8E6"/>
<path d="M303.297 274.5H298.108V313.364H303.297V274.5Z" fill="#37B4DD"/>
<path d="M300.703 246C295.931 251.257 293.173 258.03 292.919 265.121C292.919 277.091 300.703 277.091 300.703 277.091C300.703 277.091 308.487 277.091 308.487 269.914C308.487 263.67 300.703 257.97 300.703 246Z" fill="#37B4DD"/>
<path d="M272.162 321.136L279.946 360H321.459L329.243 321.136H272.162Z" fill="#B2BDCB"/>
<path d="M329.243 328.909H272.162C270.73 328.909 269.567 327.748 269.567 326.318V315.955H331.838V326.318C331.739 327.707 330.634 328.811 329.243 328.909Z" fill="#7F92A8"/>
<path d="M89.9331 484.172L83.8987 490.397C80.8548 493.538 82.0423 498.79 86.1368 500.297L92.7811 502.745C92.7811 502.745 107.095 517.623 108.75 518.295C111.024 519.216 131.532 519.971 131.532 519.971L131.827 519.161C132.876 516.281 131.616 514.186 128.894 512.803L115.316 510.941L107.132 488.091L89.9331 484.172Z" fill="#99644C"/>
<path d="M97.2852 458.552L89.7217 486.195C89.8152 486.424 89.8964 486.628 89.9899 486.858L105.643 491.795L149.525 393.777L149.444 393.695C141.781 385.968 128.993 387.266 123.019 396.375C120.489 400.234 117.975 404.113 115.335 407.897C112.752 411.599 110.058 415.294 108.273 419.47C105.724 425.436 104.569 431.938 102.863 438.174C101.008 444.956 99.1527 451.737 97.2975 458.518C97.2908 458.528 97.2874 458.541 97.2852 458.552Z" fill="#99644C"/>
<path opacity="0.1" d="M128.895 512.802L115.317 510.94L107.208 488.299L149.525 393.776L149.444 393.694C141.78 385.967 128.993 387.265 123.018 396.374C120.489 400.233 117.975 404.112 115.334 407.896C112.75 411.598 110.057 415.293 108.272 419.469C105.722 425.435 104.568 431.937 102.862 438.173C101.007 444.955 99.1514 451.736 97.2961 458.517C97.2928 458.529 97.2895 458.54 97.2861 458.552L90.2568 484.245L89.934 484.171L83.8997 490.396C80.8558 493.537 82.0433 498.789 86.1378 500.296L92.782 502.743C92.782 502.743 107.096 517.622 108.752 518.293C111.026 519.214 131.535 519.97 131.535 519.97L131.83 519.16C132.877 516.28 131.617 514.186 128.895 512.802Z" fill="#002652"/>
<path d="M89.9331 484.172L83.8987 490.397C80.8548 493.538 82.0423 498.79 86.1368 500.297L92.7811 502.745C92.7811 502.745 107.099 518.732 108.75 519.414C110.647 520.196 131.532 519.971 131.532 519.971L131.827 519.161C132.876 516.281 131.616 513.067 128.894 511.684L115.316 510.941L95.1783 497.662L89.9331 484.172Z" fill="#1C84A7"/>
<path d="M94.9445 500.802L82.3539 496.164L80 507.437L91.0448 511.505L94.9445 500.802Z" fill="#1C84A7"/>
<path d="M132.529 307.202L141.254 394.934L118.648 397.327L98.0254 307.202H132.529Z" fill="#99644C"/>
<path d="M135.548 474.711L145.545 501.56C145.755 501.691 145.939 501.808 146.149 501.939L161.706 496.706L140.076 391.437L139.963 391.419C129.249 389.68 118.223 386.363 118.697 397.264C118.697 397.264 120.66 432.141 121.651 436.577C123.065 442.912 125.923 448.859 128.178 454.917C130.631 461.504 133.083 468.09 135.536 474.677C135.539 474.688 135.543 474.7 135.548 474.711Z" fill="#99644C"/>
<path d="M142.532 494.162L138.996 502.094C137.212 506.095 140.123 510.616 144.483 510.616H151.56C151.56 510.616 170.089 519.637 171.873 519.694C174.324 519.773 196.136 519.694 196.136 519.694V518.832C196.136 515.765 193.853 513.183 190.824 512.825L176.951 511.185L160.023 491.894L142.532 494.162Z" fill="#99644C"/>
<path d="M142.532 494.162L138.996 502.094C137.212 506.095 140.123 510.616 144.483 510.616H151.56C151.56 510.616 170.09 519.626 171.873 519.695C173.922 519.773 196.136 519.695 196.136 519.695V518.832C196.136 515.765 193.853 513.184 190.824 512.825L176.951 511.185L152.073 505.014L142.532 494.162Z" fill="#1C84A7"/>
<path d="M152.926 508.044H139.518L141.164 519.444H152.926V508.044Z" fill="#1C84A7"/>
<path d="M188.86 171.521C191.439 165.464 201.378 163.931 211.06 168.099C219.319 171.654 224.723 178.209 224.532 183.818C224.483 185.27 222.958 186.197 221.629 185.626L188.86 171.521Z" fill="#002652"/>
<path d="M193.833 163.525C196.028 158.367 204.49 157.063 212.731 160.611C219.763 163.637 224.364 169.218 224.2 173.994C224.158 175.231 222.86 176.021 221.729 175.534L193.833 163.525Z" fill="#002652"/>
<path d="M202.175 162.403L201.652 162.178C199.539 161.268 197.092 162.253 196.188 164.379L190.508 177.72L208.253 185.357L209.837 181.635C213.001 174.198 209.572 165.586 202.175 162.403Z" fill="#99644C"/>
<path d="M168.103 228.203L164.9 202.168L175.206 187.855L182.878 193.441L189.607 198.342L168.103 228.203Z" fill="#99644C"/>
<path d="M131.51 282.718L89.9395 278.463C90.9122 269.812 95.1959 261.883 101.884 256.354L118.663 242.485C123.792 238.246 128.01 233.001 131.058 227.071L140.751 208.221C144.632 200.674 152.582 196.147 161.014 196.683L161.294 196.79C169.825 200.055 175.435 208.313 175.359 217.492L175.186 237.901L131.51 282.718Z" fill="#6EC8E6"/>
<path d="M176.514 216.799L175.186 237.902L151.489 261.61L126.131 234.784C128.012 232.379 129.657 229.796 131.061 227.072L140.754 208.222C144.633 200.675 152.354 199.766 160.792 200.303L162.138 200.389C170.614 200.929 177.051 208.276 176.514 216.799Z" fill="#6EC8E6"/>
<path d="M106.468 252.591L134.282 279.581L89.8784 275.037L92.1266 267.385C93.0614 264.199 94.9824 261.395 97.6089 259.382L106.468 252.591Z" fill="#1C84A7"/>
<path d="M206.164 178.026L195.041 173.238L188.989 187.456L200.112 192.244L206.164 178.026Z" fill="#99644C"/>
<path d="M174.895 192.71L181.793 200.182L197.229 163.921C198.135 161.794 197.153 159.329 195.038 158.418L193.314 157.676C185.102 154.142 175.687 158.791 173.449 167.486L170.974 177.103C169.549 182.638 171.027 188.52 174.895 192.71Z" fill="#002652"/>
<path d="M209.837 180.682L206.95 187.464C206.845 187.71 206.694 187.934 206.506 188.123L204.659 189.974C204.039 190.596 203.871 191.541 204.24 192.339L204.569 193.054L198.986 206.172C198.077 208.306 195.617 209.291 193.498 208.37L169.333 197.851L172.962 189.603L209.837 180.682Z" fill="#99644C"/>
<path d="M197.876 199.423L204.351 198.938C205.816 198.828 206.71 197.272 206.075 195.94L202.524 188.506L197.876 199.423Z" fill="#99644C"/>
<path opacity="0.1" d="M185.043 204.238L183.718 203.601C182.419 202.977 180.881 203.738 180.581 205.153L178.98 212.704" fill="#002652"/>
<path d="M187.433 184.616L181.864 182.219L178.235 190.746L183.803 193.143L187.433 184.616Z" fill="#99644C"/>
<path opacity="0.1" d="M206.127 187.665L202.736 186.206C202.431 186.074 202.086 186.07 201.779 186.195L200.22 186.824C199.186 187.24 199.168 188.706 200.193 189.147L204.135 190.844" fill="#002652"/>
<path opacity="0.1" d="M197.949 199.116L198.02 200.163C198.059 200.736 198.331 201.27 198.772 201.635L200.286 202.893L201.304 200.505L197.949 199.116Z" fill="#002652"/>
<path d="M186.197 179.04L203.185 186.353L204.771 183.692L187.4 176.214L186.197 179.04Z" fill="#37B4DD"/>
<path d="M181.246 184.111L189.633 187.721L193.346 179L184.959 175.39C183.064 174.574 180.869 175.458 180.058 177.363L179.283 179.181C178.473 181.089 179.351 183.295 181.246 184.111Z" fill="#99644C"/>
<path d="M203.786 174.348L192.395 169.445L189.894 175.319C188.012 174.681 186.224 174.041 186.003 173.845C185.667 173.545 187.833 179.899 189.201 183.847C189.576 184.931 191.08 184.978 191.529 183.922L193.128 180.165C193.401 179.526 194.135 179.231 194.77 179.504L196.541 180.266C198.746 181.216 201.301 180.186 202.245 177.969L203.786 174.348Z" fill="#002652"/>
<path d="M178.385 153.791C180.288 149.322 187.62 148.191 194.762 151.266C201.903 154.341 206.151 160.455 204.249 164.925" fill="black"/>
<path d="M185.512 161.002L198.923 166.775L187.852 192.783C186.04 197.039 181.139 199.012 176.907 197.191L171.16 194.718L185.512 161.002Z" fill="#002652"/>
<path d="M195.929 160.202L211.721 166.999L207.867 176.052C206.055 180.308 201.155 182.281 196.922 180.46L188.795 176.963L195.929 160.202Z" fill="#002652"/>
<path d="M201.178 276.493L216.384 282.493L252.236 289.906L255.512 278.861L223.608 264.33C221.927 263.57 220.199 262.924 218.433 262.394L203.71 257.978L199.342 272.707C198.883 274.256 199.681 275.902 201.178 276.493Z" fill="#99644C"/>
<path d="M204.487 184.796C204.451 184.794 204.382 184.808 204.352 184.881L201.969 190.478C201.955 190.512 201.954 190.548 201.968 190.583C201.983 190.619 202.007 190.643 202.042 190.658L205.802 192.268C205.838 192.27 205.907 192.256 205.937 192.183L208.32 186.586C208.334 186.552 208.335 186.516 208.321 186.481C208.306 186.445 208.282 186.421 208.247 186.406L204.532 184.807C204.517 184.8 204.501 184.797 204.487 184.796ZM204.557 183.679C204.696 183.688 204.835 183.72 204.97 183.779L208.685 185.378C209.32 185.652 209.614 186.391 209.343 187.028L206.96 192.625C206.745 193.128 206.244 193.419 205.731 193.386C205.592 193.377 205.453 193.345 205.318 193.287L201.603 191.687C200.968 191.413 200.674 190.675 200.945 190.037L203.328 184.44C203.542 183.936 204.043 183.647 204.557 183.679Z" fill="#37B4DD"/>
<path d="M199.129 274.471L157.783 225.656L174.254 207.757L212.079 260.834L199.129 274.471Z" fill="#6EC8E6"/>
<path d="M135.079 219.303L138.965 211.781C146.267 198.68 164.179 196.605 174.255 207.69L169.023 200.995C165.756 196.814 160.409 194.869 155.238 195.98L130.336 201.335L134.978 209.808L135.079 219.303Z" fill="#6EC8E6"/>
<path opacity="0.1" d="M163.362 250.217L165.657 238.769C165.852 237.799 167.033 237.425 167.745 238.107L171.462 241.669L163.362 250.217Z" fill="#002652"/>
<path d="M180.325 178.787C182.903 172.731 177.145 164.44 167.464 160.273C159.205 156.717 150.757 157.31 146.853 161.322C145.843 162.361 146.228 164.109 147.557 164.682L180.325 178.787Z" fill="#002652"/>
<path d="M183.558 189.299C185.955 183.667 180.602 175.962 171.601 172.086C163.921 168.78 156.068 169.332 152.438 173.062C151.499 174.028 151.856 175.654 153.091 176.185L183.558 189.299Z" fill="#002652"/>
<path d="M177.364 192.104C182.036 194.115 186.164 188.405 182.859 184.524C181.058 182.411 178.575 180.559 175.595 179.275C168.918 176.401 161.907 177.316 158.502 181.142C157.62 182.134 157.862 183.708 158.937 184.171L177.364 192.104Z" fill="#002652"/>
<path d="M177.868 197.6C181.31 199.081 184.35 194.875 181.914 192.015C180.588 190.459 178.758 189.094 176.563 188.148C171.645 186.03 166.479 186.703 163.971 189.523C163.323 190.253 163.499 191.414 164.292 191.754L177.868 197.6Z" fill="#002652"/>
<path d="M189.188 170.749C191.766 164.691 186.008 156.403 176.327 152.235C168.068 148.68 159.621 149.273 155.716 153.286C154.706 154.325 155.091 156.073 156.42 156.646L189.188 170.749Z" fill="#002652"/>
<path d="M207.25 169.86C209.828 163.802 204.071 155.513 194.389 151.346C186.129 147.791 177.683 148.383 173.777 152.397C172.767 153.435 173.152 155.183 174.481 155.756L207.25 169.86Z" fill="#002652"/>
<path d="M241.34 282.276L241.485 277.134L252.999 277.864C254.02 277.933 255.033 277.65 255.872 277.062L257.696 275.728C258.908 274.846 260.312 274.266 261.791 274.039L264.202 273.66L273.71 269.861C274.101 269.66 274.58 269.813 274.78 270.206C274.795 270.237 274.81 270.27 274.822 270.303C275.054 271.021 274.718 271.837 274.171 272.528C273.627 273.175 272.919 273.661 272.122 273.935L268.987 275.051C268.333 275.288 267.813 275.797 267.559 276.447L267.558 276.484C267.157 277.525 267.673 278.694 268.708 279.097C268.807 279.136 268.909 279.167 269.013 279.189L284.655 282.512C285.759 282.854 286.469 283.792 286.419 284.737C286.378 285.06 286.084 285.289 285.763 285.249C285.751 285.247 285.739 285.246 285.726 285.243L272.163 283.833C271.922 283.807 271.703 283.982 271.677 284.226C271.656 284.422 271.765 284.609 271.946 284.684L285.657 290.538C286.659 291.095 287.179 292.155 286.943 293.074C286.835 293.379 286.501 293.539 286.197 293.43C286.19 293.426 286.181 293.424 286.173 293.421L271.779 288.896C271.638 288.856 271.492 288.939 271.452 289.08C271.421 289.192 271.466 289.31 271.561 289.374L283.363 296.712C284.283 297.422 284.625 298.547 284.254 299.41C284.105 299.705 283.748 299.821 283.455 299.67C283.449 299.667 283.442 299.663 283.435 299.66L270.346 293.19C270.098 293.067 269.821 293.5 270.04 293.684L276.927 300.739C277.753 301.554 277.951 302.717 277.477 303.533C277.288 303.802 276.921 303.867 276.654 303.679C276.648 303.674 276.643 303.671 276.637 303.667L268.457 296.469C267.59 295.716 266.536 295.215 265.409 295.017L261.193 294.251C259.067 293.556 257.017 292.643 255.077 291.527L252.428 290.004C251.265 289.337 249.949 288.986 248.61 288.987L246.961 288.797C243.689 288.418 241.247 285.586 241.34 282.276Z" fill="#99644C"/>
<path d="M145.58 348.459L133.288 283.006L131.987 279.942C127.609 269.632 115.843 264.726 105.494 268.896L103.052 269.879C90.6787 274.864 84.6678 288.991 89.6248 301.433L113.511 361.379L145.58 348.459Z" fill="#1C84A7"/>
<path d="M154.002 383.237L152.453 396.539L117.39 395.498L100.511 321.747L144.367 343.718L154.002 383.237Z" fill="#1C84A7"/>
<path d="M105.199 253.538L96.3936 260.364C86.2414 268.234 82.4051 281.857 86.9459 293.912L91.7426 306.642L133.269 285.982L134.281 279.581L105.199 253.538Z" fill="#1C84A7"/>
</svg>
