<svg width="373" height="360" viewBox="0 0 373 360" fill="none" xmlns="http://www.w3.org/2000/svg">
<path d="M41.0585 239.379C40.7828 238.407 39.6118 237.817 38.4673 238.052C37.32 238.285 36.6238 239.277 36.9036 240.249C37.1793 241.221 38.3503 241.811 39.4949 241.576C40.6394 241.341 41.3467 240.36 41.0585 239.379ZM242.518 97.1223C244.393 96.0443 244.909 93.8942 243.672 92.2796C242.546 90.6898 240.119 90.1721 238.249 91.1144C238.182 91.1498 238.121 91.1745 238.066 91.2146C236.191 92.2926 235.676 94.4426 236.912 96.0572C238.105 97.6612 240.623 98.1436 242.518 97.1223ZM159.283 142.997C161.169 141.908 161.646 139.736 160.354 138.145C159.095 136.58 156.587 136.148 154.714 137.183C152.817 138.202 152.255 140.324 153.458 141.931C154.794 143.519 157.326 143.977 159.283 142.997ZM75.8583 188.876C77.7449 187.85 78.2949 185.74 77.0836 184.142C77.0585 184.111 77.0307 184.078 77.0042 184.046C75.8778 182.456 73.4508 181.939 71.5809 182.881C71.514 182.916 71.4528 182.941 71.3985 182.981C69.5257 184.095 68.9799 186.241 70.1412 187.916C71.4166 189.489 73.9577 189.923 75.8583 188.876ZM278.756 274.41C278.276 272.546 276.106 271.364 273.897 271.78C271.697 272.185 270.303 274.026 270.792 275.896C271.265 277.723 273.37 278.897 275.538 278.548C277.749 278.133 279.177 276.297 278.756 274.41ZM181.021 289.802C180.54 287.937 178.371 286.755 176.161 287.171C173.961 287.576 172.569 289.417 173.056 291.288C173.53 293.114 175.635 294.288 177.803 293.939C180.006 293.533 181.441 291.689 181.021 289.802ZM73.5163 5.45593C74.7597 3.84723 74.264 1.69248 72.3717 0.613335C70.5547 -0.466993 68.0568 -0.080138 66.7813 1.45898C66.773 1.46841 66.7646 1.47783 66.7563 1.48727C65.414 2.9391 65.7203 5.0337 67.4316 6.173C67.5137 6.22489 67.5945 6.27681 67.6906 6.33813C69.6148 7.36303 72.1337 6.9915 73.5163 5.45593ZM17.1792 74.88C18.4003 73.2571 17.9491 71.1153 16.1488 69.9525C14.2496 68.8993 11.7001 69.3309 10.4317 70.9219C9.16044 72.4976 9.63524 74.6547 11.4955 75.728C11.5177 75.7421 11.5428 75.7586 11.5553 75.7657C13.3724 76.846 15.8703 76.4592 17.136 74.9295C17.1611 74.8988 17.1708 74.8894 17.1792 74.88ZM294.023 355.954C293.837 354.26 292.081 353.003 290.076 353.127C288.074 353.268 286.578 354.764 286.739 356.471C286.897 358.176 288.671 359.433 290.686 359.298C292.684 359.135 294.17 357.651 294.023 355.954ZM120.408 77.8863C121.669 76.5064 121.445 74.5427 119.891 73.3951C118.4 72.3207 116.168 72.4728 114.896 73.7348C114.86 73.7749 114.835 73.8044 114.799 73.8445C113.469 75.1324 113.629 77.089 115.158 78.2012C115.181 78.2153 115.192 78.2224 115.218 78.2389C116.776 79.2815 119.042 79.1353 120.408 77.8863ZM63.4549 135.325C64.7164 134.009 64.4783 132.081 62.9439 131.01C61.4527 129.935 59.2207 130.088 57.9495 131.35C57.9133 131.39 57.8882 131.419 57.852 131.459C56.5223 132.747 56.6824 134.704 58.2001 135.828C58.2224 135.842 58.2335 135.849 58.26 135.865C59.8751 136.892 62.1767 136.66 63.4549 135.325ZM6.41188 193.032C7.7416 191.744 7.58148 189.787 6.06378 188.664C6.0415 188.649 6.03037 188.642 6.00391 188.626C4.59343 187.54 2.406 187.641 1.12501 188.836C1.04425 188.908 0.971846 188.988 0.902227 189.067C-0.427497 190.355 -0.267373 192.311 1.25032 193.435C1.2726 193.45 1.28374 193.457 1.31019 193.473C2.87662 194.487 5.12253 194.3 6.41188 193.032ZM202.729 227.137C204.488 226.295 205.142 224.419 204.186 222.908C203.261 221.4 201.085 220.809 199.305 221.589C197.53 222.405 196.791 224.255 197.636 225.809C198.619 227.351 200.877 227.935 202.729 227.137ZM123.982 261.83C125.733 261.121 126.487 259.344 125.65 257.86C125.619 257.81 125.582 257.753 125.559 257.694C124.635 256.185 122.458 255.594 120.679 256.374C118.904 257.19 118.164 259.04 119.01 260.594C119.981 262.083 122.194 262.639 123.982 261.83ZM370.281 309.107C372.298 308.1 373.041 305.942 371.958 304.174C370.858 302.429 368.31 301.755 366.248 302.67C364.206 303.661 363.46 305.847 364.571 307.603C365.671 309.347 368.219 310.021 370.281 309.107ZM279.888 349.95C281.958 349.025 282.744 346.86 281.663 345.113C280.584 343.366 278.015 342.694 275.953 343.609C273.883 344.534 273.097 346.699 274.178 348.446C275.269 350.2 277.826 350.865 279.888 349.95ZM39.0159 75.2538C39.6369 73.3126 38.367 71.3029 36.1086 70.6754C33.8279 70.1565 31.4789 71.31 30.8774 73.2489C30.287 75.1159 31.5416 77.0383 33.7053 77.6244C35.9373 78.1575 38.2765 77.1197 39.0159 75.2538ZM9.26626 158.259C9.89562 156.368 8.67311 154.389 6.46897 153.765C4.23002 153.179 1.85462 154.238 1.16399 156.135C0.471981 158.031 1.72234 160.043 3.96129 160.628C6.19188 161.179 8.5464 160.122 9.26626 158.259ZM207.135 199.664C208.519 198.086 208.243 195.867 206.525 194.552C204.676 193.359 202.046 193.631 200.592 195.164C199.095 196.641 199.287 198.869 201.044 200.141C201.067 200.156 201.092 200.172 201.115 200.186C202.933 201.458 205.621 201.223 207.135 199.664ZM142.067 266.78C143.561 265.223 143.287 262.942 141.469 261.675C141.469 261.675 141.469 261.675 141.458 261.668C139.689 260.448 137.073 260.68 135.644 262.185C134.167 263.704 134.413 265.951 136.199 267.197C137.946 268.457 140.571 268.256 142.067 266.78ZM270.814 224.824C272.305 223.328 272.078 221.079 270.303 219.809C268.526 218.534 265.882 218.738 264.38 220.241C262.933 221.704 263.097 223.88 264.77 225.163C266.566 226.48 269.257 226.326 270.814 224.824ZM202.848 289.299C204.392 287.789 204.211 285.509 202.437 284.191C200.696 282.94 198.088 283.058 196.507 284.446C194.979 285.981 195.116 288.248 196.806 289.64C198.613 290.915 201.263 290.75 202.848 289.299ZM66.4179 172.932C67.1406 171.04 65.9403 168.996 63.7209 168.345C61.5376 167.716 59.1594 168.694 58.4173 170.543C57.5819 172.334 58.6136 174.362 60.7259 175.07C60.783 175.091 60.8359 175.11 60.9027 175.119C63.0887 175.828 65.5379 174.895 66.3608 173.034C66.3915 173.008 66.4054 172.972 66.4179 172.932Z" fill="#186E8B"/>
</svg>
