<svg width="129" height="129" viewBox="0 0 129 129" fill="none" xmlns="http://www.w3.org/2000/svg">
<path d="M37.5829 0.0265335C36.1614 0.0487538 34.8068 0.634042 33.8164 1.65394C32.826 2.67385 32.2806 4.04504 32.3001 5.46657V32.2999H5.46678C4.75563 32.2898 4.04958 32.4212 3.38965 32.6864C2.72972 32.9516 2.12908 33.3453 1.62263 33.8446C1.11618 34.344 0.71402 34.939 0.439527 35.5951C0.165034 36.2512 0.0236816 36.9554 0.0236816 37.6666C0.0236816 38.3778 0.165034 39.0819 0.439527 39.738C0.71402 40.3941 1.11618 40.9892 1.62263 41.4885C2.12908 41.9878 2.72972 42.3815 3.38965 42.6467C4.04958 42.9119 4.75563 43.0433 5.46678 43.0332H36.7653C37.3449 43.129 37.9362 43.129 38.5158 43.0332H90.432C91.0116 43.129 91.6029 43.129 92.1825 43.0332H123.533C124.245 43.0433 124.951 42.9119 125.611 42.6467C126.27 42.3815 126.871 41.9878 127.378 41.4885C127.884 40.9892 128.286 40.3941 128.561 39.738C128.835 39.0819 128.977 38.3778 128.977 37.6666C128.977 36.9554 128.835 36.2512 128.561 35.5951C128.286 34.939 127.884 34.344 127.378 33.8446C126.871 33.3453 126.27 32.9516 125.611 32.6864C124.951 32.4212 124.245 32.2898 123.533 32.2999H96.7001V5.46657C96.7099 4.74857 96.5756 4.03589 96.305 3.37075C96.0345 2.7056 95.6332 2.10151 95.1249 1.59425C94.6167 1.08698 94.0118 0.68686 93.3462 0.417576C92.6805 0.148291 91.9676 0.0153193 91.2496 0.0265335C89.8281 0.0487538 88.4735 0.634042 87.4831 1.65394C86.4926 2.67385 85.9473 4.04504 85.9668 5.46657V32.2999H43.0334V5.46657C43.0433 4.74857 42.9089 4.03589 42.6384 3.37075C42.3678 2.7056 41.9665 2.10151 41.4583 1.59425C40.95 1.08698 40.3452 0.68686 39.6795 0.417576C39.0138 0.148291 38.3009 0.0153193 37.5829 0.0265335ZM32.3001 53.7666V85.9666H5.46678C4.75563 85.9565 4.04958 86.0879 3.38965 86.3531C2.72972 86.6183 2.12908 87.012 1.62263 87.5113C1.11618 88.0106 0.71402 88.6057 0.439527 89.2618C0.165034 89.9179 0.0236816 90.622 0.0236816 91.3332C0.0236816 92.0444 0.165034 92.7486 0.439527 93.4047C0.71402 94.0608 1.11618 94.6558 1.62263 95.1552C2.12908 95.6545 2.72972 96.0482 3.38965 96.3134C4.04958 96.5786 4.75563 96.71 5.46678 96.6999H123.533C124.245 96.71 124.951 96.5786 125.611 96.3134C126.27 96.0482 126.871 95.6545 127.378 95.1552C127.884 94.6558 128.286 94.0608 128.561 93.4047C128.835 92.7486 128.977 92.0444 128.977 91.3332C128.977 90.622 128.835 89.9179 128.561 89.2618C128.286 88.6057 127.884 88.0106 127.378 87.5113C126.871 87.012 126.27 86.6183 125.611 86.3531C124.951 86.0879 124.245 85.9565 123.533 85.9666H96.7001V53.7666H85.9668V85.9666H43.0334V53.7666H32.3001ZM32.3001 107.433V123.533C32.3001 124.957 32.8655 126.322 33.872 127.328C34.8784 128.334 36.2434 128.9 37.6668 128.9C39.0901 128.9 40.4551 128.334 41.4616 127.328C42.468 126.322 43.0334 124.957 43.0334 123.533V107.433H32.3001ZM85.9668 107.433V123.533C85.9668 124.957 86.5322 126.322 87.5386 127.328C88.5451 128.334 89.9101 128.9 91.3334 128.9C92.7568 128.9 94.1218 128.334 95.1282 127.328C96.1347 126.322 96.7001 124.957 96.7001 123.533V107.433H85.9668Z" fill="#1C84A7"/>
</svg>
