<svg width="79" height="73" viewBox="0 0 79 73" fill="none" xmlns="http://www.w3.org/2000/svg">
<path d="M8.90039 0.800049C4.23203 0.800049 0.400391 4.63169 0.400391 9.30005V50.1001C0.400391 54.7684 4.23203 58.6001 8.90039 58.6001H15.8598C16.0922 60.6454 16.0656 62.5379 15.541 64.1251C14.8969 66.0774 13.6949 67.7176 11.4504 69.0657C10.8195 69.4641 10.5273 70.2278 10.7199 70.945C10.9125 71.6622 11.5566 72.1735 12.3004 72.2001C19.5121 72.2001 27.7797 68.4348 31.9566 58.6001H70.1004C74.7687 58.6001 78.6004 54.7684 78.6004 50.1001V9.30005C78.6004 4.63169 74.7687 0.800049 70.1004 0.800049H8.90039ZM8.90039 4.20005H70.1004C72.916 4.20005 75.2004 6.48442 75.2004 9.30005V50.1001C75.2004 52.9157 72.916 55.2001 70.1004 55.2001H31.0004C30.2898 55.2001 29.6523 55.645 29.4066 56.3157C26.7637 63.5274 22.0422 66.9606 17.1348 68.2157C17.7988 67.2661 18.4297 66.2633 18.7816 65.1876C19.6648 62.5047 19.5918 59.5696 19.0473 56.5813C18.8945 55.7911 18.2105 55.2133 17.4004 55.2001H8.90039C6.08477 55.2001 3.80039 52.9157 3.80039 50.1001V9.30005C3.80039 6.48442 6.08477 4.20005 8.90039 4.20005Z" fill="#003844"/>
</svg>
