<svg width="63" height="83" viewBox="0 0 63 83" fill="none" xmlns="http://www.w3.org/2000/svg">
<path d="M25.0878 0.709951C22.6473 0.778786 20.2894 1.9792 18.946 4.07675L18.4713 4.8205C17.7936 5.87735 16.5993 6.52827 15.2932 6.5537H15.2897L14.3686 6.57362C10.4161 6.65137 7.19631 9.69007 7.11588 13.4234L7.09479 14.2933C7.06786 15.5269 6.37655 16.6571 5.25963 17.2949L4.47213 17.7465C1.09006 19.68 -0.0908323 23.8342 1.81432 27.1064H1.81783L2.2608 27.8701C2.89107 28.9508 2.89107 30.2558 2.2608 31.3365L1.81783 32.0969C-0.0870133 35.3686 1.09137 39.5234 4.47565 41.4568L5.26315 41.9051C6.38216 42.5452 7.07137 43.6731 7.0983 44.9066V44.9099L7.1194 45.7799C7.18598 48.7995 9.31772 51.3369 12.2171 52.2478L2.86549 71.3861C2.7386 71.6452 2.68284 71.9304 2.70335 72.2152C2.72387 72.5 2.82 72.7754 2.98287 73.0159C3.14575 73.2564 3.37014 73.4543 3.63532 73.5913C3.90051 73.7284 4.19797 73.8001 4.50026 73.8H16.2354L22.894 81.6625C23.0877 81.891 23.3406 82.0685 23.6282 82.1776C23.9158 82.2868 24.2283 82.3239 24.5356 82.2855C24.8429 82.2471 25.1344 82.1345 25.3821 81.9584C25.6297 81.7824 25.825 81.5489 25.9491 81.2806L31.5565 69.1781L37.1639 81.2806C37.288 81.5489 37.4833 81.7824 37.7309 81.9584C37.9786 82.1345 38.2701 82.2471 38.5774 82.2855C38.8847 82.3239 39.1972 82.2868 39.4848 82.1776C39.7724 82.0685 40.0253 81.891 40.219 81.6625L46.8776 73.8H58.6128C58.915 73.8001 59.2125 73.7284 59.4777 73.5913C59.7429 73.4543 59.9673 73.2564 60.1301 73.0159C60.293 72.7754 60.3891 72.5 60.4097 72.2152C60.4302 71.9304 60.3744 71.6452 60.2475 71.3861L50.8819 52.218C53.7324 51.2813 55.8188 48.7664 55.8846 45.7799V45.7765L55.9057 44.9099V44.9066C55.9326 43.6731 56.624 42.5428 57.7409 41.9051L58.5319 41.4535C61.914 39.52 63.0913 35.3691 61.1862 32.0969L61.1827 32.0935L60.7327 31.3266C60.1062 30.2471 60.1071 28.9453 60.7362 27.8668L61.1827 27.1064V27.1031C63.0867 23.8328 61.9093 19.681 58.5284 17.7465L58.5249 17.7432L57.7374 17.2949C56.6184 16.6551 55.9291 15.5269 55.9022 14.2933V14.29L55.8811 13.4234V13.4201C55.7988 9.68716 52.5813 6.64627 48.6284 6.5703L47.7073 6.55038C46.4012 6.52495 45.2044 5.87204 44.5292 4.81718L44.051 4.07343C42.0039 0.877171 37.6047 -0.235751 34.1405 1.56327V1.56659L33.3319 1.98495C32.1876 2.5802 30.8059 2.5802 29.6616 1.98495L28.8565 1.56659C27.9904 1.11684 27.0669 0.848643 26.1354 0.749795C25.7861 0.712727 25.4364 0.700118 25.0878 0.709951ZM24.9963 4.09999C25.7083 4.05093 26.446 4.19317 27.1233 4.54491L27.9249 4.96327C30.1466 6.11902 32.8504 6.11902 35.0721 4.96327L35.8772 4.54159V4.54491C37.6834 3.60694 39.9045 4.16745 40.9713 5.83319L41.4495 6.57694C42.761 8.62411 45.097 9.89993 47.6299 9.95038L48.5545 9.9703C50.616 10.0099 52.2427 11.5429 52.2846 13.4898V13.4932L52.3022 14.3631C52.3545 16.7574 53.7063 18.9634 55.8741 20.2035L56.6616 20.6551C58.4242 21.6621 59.0198 23.7576 58.0292 25.4629L57.5827 26.2266C56.3589 28.3249 56.3589 30.8751 57.5827 32.9734L57.5862 32.9767V32.9801L58.0327 33.7338C59.0255 35.4391 58.4273 37.5375 56.6651 38.5449L55.8776 38.9965C53.7077 40.2355 52.358 42.4426 52.3057 44.8369L52.2881 45.7068V45.7101C52.2462 47.6571 50.6195 49.1901 48.5581 49.2297L47.6335 49.2496C45.0997 49.3001 42.7654 50.5733 41.453 52.6197V52.623L40.9749 53.3668C39.908 55.0325 37.6869 55.593 35.8807 54.6551V54.6584L35.0756 54.2367C32.8539 53.081 30.1501 53.081 27.9284 54.2367L27.1233 54.6584V54.6551C25.3177 55.5928 23.0959 55.0311 22.0292 53.3668L21.551 52.623C20.2395 50.5759 17.9035 49.3 15.3706 49.2496H15.3671L14.446 49.2297C12.3845 49.1901 10.7578 47.6571 10.7159 45.7101V45.7068L10.6983 44.8369C10.646 42.4426 9.29421 40.2365 7.12643 38.9965L6.33893 38.5449C4.57526 37.5371 3.9782 35.4396 4.97135 33.7338L5.41432 32.9767V32.9734C6.63636 30.8757 6.63749 28.3239 5.41432 26.2266L4.96783 25.4662H4.97135C3.9785 23.7609 4.57317 21.6625 6.33541 20.6551L7.12291 20.2035C9.2905 18.9648 10.6414 16.7586 10.6948 14.3664V14.3631L10.7159 13.4932C10.7578 11.5462 12.381 10.0099 14.4424 9.9703H14.446L15.3671 9.9537C17.9022 9.90433 20.238 8.62762 21.551 6.58026L22.0292 5.83651C22.5626 5.00364 23.3821 4.44419 24.2967 4.21288C24.5254 4.15505 24.759 4.11634 24.9963 4.09999ZM44.61 17.8461L29.7776 39.7435L17.8561 29.6099L15.4444 32.14L30.5229 44.9531L47.6405 19.6789L44.61 17.8461ZM47.1624 52.726L55.7967 70.4H46.0128C45.7427 70.3998 45.4761 70.4571 45.2327 70.5674C44.9893 70.6778 44.7753 70.8384 44.6065 71.0375L39.2663 77.3394L33.5217 64.9314L36.5522 58.3904C39.4452 58.8172 42.4614 57.614 44.0545 55.1265L44.5327 54.3828C45.1129 53.478 46.079 52.898 47.1624 52.726ZM15.9436 52.7392C16.986 52.9325 17.9113 53.5079 18.4713 54.3828L18.9495 55.1265C20.9968 58.3208 25.3952 59.436 28.86 57.6367V57.6334L29.6686 57.215C30.767 56.6437 32.0789 56.6364 33.1948 57.1619L23.8467 77.3394L18.5065 71.0375C18.3377 70.8384 18.1237 70.6778 17.8803 70.5674C17.6369 70.4571 17.3703 70.3998 17.1003 70.4H7.31627L15.9436 52.7392Z" fill="#003844"/>
</svg>
