<svg width="161" height="161" viewBox="0 0 161 161" fill="none" xmlns="http://www.w3.org/2000/svg">
<g clip-path="url(#clip0_655:957)">
<path d="M2.61655 0C1.08202 0.289297 -0.0248581 1.64774 0.000298171 3.22V132.02C0.000298171 133.794 1.44678 135.24 3.2203 135.24H54.7403V128.8H6.4403V6.44H154.56V128.8H106.26V135.24H157.78C159.554 135.24 161 133.794 161 132.02V3.22C161 1.44649 159.554 0 157.78 0H3.2203C3.11967 0 3.01905 0 2.91842 0C2.8178 0 2.71717 0 2.61655 0ZM32.2003 28.98V35.42H128.8V28.98H32.2003ZM32.2003 45.08V51.52H128.8V45.08H32.2003ZM32.2003 61.18V67.62H128.8V61.18H32.2003ZM80.1984 76.9781C76.8275 76.9781 74.1483 78.9906 72.4503 81.7075C69.3058 80.7012 65.8719 81.0031 63.2934 83.2169C60.6772 85.4558 59.8722 88.7764 60.2747 91.9712C57.2056 93.2542 54.8283 95.6944 54.1365 98.8137C54.1365 98.9144 54.1365 99.015 54.1365 99.1156C53.7466 102.222 55.1302 105.065 57.3565 107.266C55.8975 110.184 55.3566 113.568 57.0547 116.524C58.0106 118.197 59.5074 119.291 61.1803 120.046V157.78C61.2054 158.912 61.8343 159.956 62.8154 160.509C63.8091 161.075 65.0292 161.063 66.0103 160.497L80.5003 151.843L94.9903 160.497C95.9714 161.063 97.1915 161.075 98.1851 160.509C99.1662 159.956 99.7951 158.912 99.8203 157.78V118.737C100.575 118.184 101.267 117.618 101.833 116.826C101.871 116.725 101.908 116.624 101.933 116.524C103.581 113.631 103.204 110.348 101.833 107.467C104.713 105.342 106.612 102.298 106.26 99.1156C106.235 99.015 106.197 98.9144 106.16 98.8137C105.43 95.556 103.015 93.1913 100.022 91.8706C100.386 88.7135 99.6945 85.4432 97.1034 83.2169C94.4243 80.9277 91.003 80.8648 87.9465 81.7075C86.2359 79.0787 83.67 76.9781 80.1984 76.9781ZM80.1984 83.4181C81.67 83.4181 82.7392 84.2986 83.3178 85.8331C83.67 86.7387 84.3995 87.4431 85.3303 87.745C85.3806 87.7702 85.8083 87.7827 85.934 87.8456C86.0975 87.8959 85.9718 87.9462 86.3365 87.9462C86.6384 88.0594 86.651 88.2481 87.2422 88.2481C87.7704 88.2355 88.2861 88.0972 88.7515 87.8456C90.4622 86.9903 91.6571 87.0029 92.8772 88.0469C94.1475 89.1412 94.4117 90.5751 93.8834 91.9712C93.5061 93.0907 93.7828 94.3234 94.5878 95.1912C94.7136 95.4428 94.8519 95.8579 95.2922 96.2981C95.7324 96.7509 96.2858 97.0654 96.9022 97.2037C98.7008 97.6062 99.3926 98.3861 99.8203 100.122C99.9461 101.606 99.7071 102.411 97.4053 103.241C96.1349 103.707 95.2922 104.914 95.2922 106.26V107.568C95.3047 108.222 95.5186 108.851 95.8959 109.379C96.8141 110.675 96.8896 112.184 96.399 113.203C95.4054 114.461 93.9715 115.165 92.7765 115.014C91.808 114.901 90.8521 115.241 90.1603 115.92L89.154 116.826C88.5503 117.442 88.2233 118.285 88.2484 119.14C88.2484 120.851 87.5818 121.719 86.1353 122.259C86.0975 122.259 86.0724 122.259 86.0347 122.259C86.0347 122.222 85.5064 122.36 85.0284 122.36C84.1731 122.36 83.3178 121.957 82.4122 121.052C81.821 120.473 81.0286 120.159 80.1984 120.146H78.5884C77.7331 120.121 76.8904 120.448 76.274 121.052C74.9785 122.347 73.9093 122.725 72.6515 122.259C71.4189 121.794 70.5384 120.373 70.5384 119.14C70.5258 118.26 70.1736 117.429 69.5322 116.826L68.6265 115.92C67.9096 115.216 66.9033 114.876 65.9097 115.014C64.6393 115.178 63.3186 114.511 62.6897 113.404C62.1111 112.386 62.2243 110.738 63.1928 109.379C63.5701 108.851 63.784 108.222 63.7965 107.568V106.26C63.784 105.078 63.1299 103.996 62.0859 103.442C61.2306 102.952 60.5388 101.342 60.5765 100.122C61.0168 98.3484 61.8218 97.3547 63.1928 97.2037C63.9097 97.1283 64.589 96.8012 65.1047 96.2981C65.5952 95.8076 65.7965 95.3044 65.9097 95.0906C66.614 94.2102 66.8027 93.0278 66.4128 91.9712C65.8845 90.5751 66.1486 89.1412 67.419 88.0469C68.6517 86.9903 70.3372 86.9903 71.2428 87.6444C72.2239 88.3236 73.5068 88.3991 74.5634 87.8456C74.6011 87.8456 74.6263 87.8456 74.664 87.8456C74.7647 87.8205 74.8653 87.7827 74.9659 87.745C76.0602 87.418 76.9029 86.5375 77.1797 85.4306C77.4312 84.4495 78.7268 83.4181 80.1984 83.4181ZM93.3803 123.266V152.145L82.1103 145.403C81.1166 144.825 79.884 144.825 78.8903 145.403L67.6203 152.145V126.586C68.375 127.303 69.268 127.894 70.3372 128.297C73.532 129.492 76.6011 128.335 79.0915 126.586C79.1167 126.574 79.167 126.599 79.1922 126.586C79.2173 126.599 79.2676 126.574 79.2928 126.586C80.8399 127.769 82.7015 128.8 85.0284 128.8C85.607 128.8 86.8522 128.787 88.349 128.196C88.3993 128.146 88.4874 128.121 88.5503 128.096C88.6383 128.058 88.6635 128.146 88.7515 128.096V127.995C90.8772 127.064 92.4495 125.354 93.3803 123.266Z" fill="#1C84A7"/>
</g>
<defs>
<clipPath id="clip0_655:957">
<rect width="161" height="161" fill="white"/>
</clipPath>
</defs>
</svg>
