<svg width="40" height="40" viewBox="0 0 40 40" fill="none" xmlns="http://www.w3.org/2000/svg">
<path d="M8.33333 5C6.49167 5 5 6.49167 5 8.33333C5 10.175 6.49167 11.6667 8.33333 11.6667C10.175 11.6667 11.6667 10.175 11.6667 8.33333C11.6667 6.49167 10.175 5 8.33333 5ZM20 5C18.1583 5 16.6667 6.49167 16.6667 8.33333C16.6667 10.175 18.1583 11.6667 20 11.6667C21.8417 11.6667 23.3333 10.175 23.3333 8.33333C23.3333 6.49167 21.8417 5 20 5ZM31.6667 5C29.825 5 28.3333 6.49167 28.3333 8.33333C28.3333 10.175 29.825 11.6667 31.6667 11.6667C33.5083 11.6667 35 10.175 35 8.33333C35 6.49167 33.5083 5 31.6667 5ZM8.33333 16.6667C6.49167 16.6667 5 18.1583 5 20C5 21.8417 6.49167 23.3333 8.33333 23.3333C10.175 23.3333 11.6667 21.8417 11.6667 20C11.6667 18.1583 10.175 16.6667 8.33333 16.6667ZM20 16.6667C18.1583 16.6667 16.6667 18.1583 16.6667 20C16.6667 21.8417 18.1583 23.3333 20 23.3333C21.8417 23.3333 23.3333 21.8417 23.3333 20C23.3333 18.1583 21.8417 16.6667 20 16.6667ZM31.6667 16.6667C29.825 16.6667 28.3333 18.1583 28.3333 20C28.3333 21.8417 29.825 23.3333 31.6667 23.3333C33.5083 23.3333 35 21.8417 35 20C35 18.1583 33.5083 16.6667 31.6667 16.6667ZM8.33333 28.3333C6.49167 28.3333 5 29.825 5 31.6667C5 33.5083 6.49167 35 8.33333 35C10.175 35 11.6667 33.5083 11.6667 31.6667C11.6667 29.825 10.175 28.3333 8.33333 28.3333ZM20 28.3333C18.1583 28.3333 16.6667 29.825 16.6667 31.6667C16.6667 33.5083 18.1583 35 20 35C21.8417 35 23.3333 33.5083 23.3333 31.6667C23.3333 29.825 21.8417 28.3333 20 28.3333ZM31.6667 28.3333C29.825 28.3333 28.3333 29.825 28.3333 31.6667C28.3333 33.5083 29.825 35 31.6667 35C33.5083 35 35 33.5083 35 31.6667C35 29.825 33.5083 28.3333 31.6667 28.3333Z" fill="#DDF5FD"/>
</svg>
