<svg width="40" height="40" viewBox="0 0 48 48" fill="none" xmlns="http://www.w3.org/2000/svg">
<path d="M12.7657 9.56877C12.1294 9.56956 11.5077 9.76002 10.9802 10.1158C10.4526 10.4716 10.0431 10.9766 9.80397 11.5663C9.56482 12.156 9.50687 12.8035 9.63754 13.4263C9.76821 14.049 10.0816 14.6187 10.5376 15.0625L19.4751 24L10.5376 32.9375C10.2305 33.2324 9.98526 33.5856 9.81635 33.9764C9.64744 34.3672 9.55821 34.7878 9.55388 35.2135C9.54955 35.6392 9.6302 36.0616 9.79113 36.4557C9.95206 36.8499 10.19 37.208 10.4911 37.509C10.7921 37.8101 11.1502 38.048 11.5444 38.209C11.9385 38.3699 12.3609 38.4505 12.7866 38.4462C13.2123 38.4419 13.6329 38.3526 14.0237 38.1837C14.4145 38.0148 14.7677 37.7696 15.0626 37.4625L24.0001 28.525L32.9376 37.4625C33.2324 37.7696 33.5856 38.0148 33.9764 38.1838C34.3672 38.3527 34.7878 38.4419 35.2136 38.4462C35.6393 38.4506 36.0616 38.3699 36.4558 38.209C36.8499 38.0481 37.208 37.8101 37.5091 37.5091C37.8101 37.208 38.0481 36.8499 38.209 36.4557C38.37 36.0616 38.4506 35.6392 38.4463 35.2135C38.4419 34.7878 38.3527 34.3672 38.1838 33.9764C38.0149 33.5856 37.7697 33.2324 37.4626 32.9375L28.5251 24L37.4626 15.0625C37.925 14.613 38.2408 14.0344 38.3687 13.4023C38.4966 12.7702 38.4305 12.1143 38.1792 11.5204C37.9278 10.9265 37.5029 10.4224 36.9602 10.0742C36.4175 9.72593 35.7822 9.54976 35.1376 9.56877C34.3062 9.59355 33.5172 9.941 32.9376 10.5375L24.0001 19.475L15.0626 10.5375C14.764 10.2306 14.4069 9.98672 14.0123 9.82032C13.6178 9.65392 13.1939 9.56838 12.7657 9.56877Z" />
</svg>
