<svg width="85" height="85" viewBox="0 0 98 98" fill="none" xmlns="http://www.w3.org/2000/svg">
<circle cx="49" cy="49" r="47.5" fill="white" stroke="#6EC8E6" stroke-width="3"/>
<path d="M36 28C33.2545 28 31 30.2545 31 33C28.2545 33 26 35.2545 26 38V59C26 61.7455 28.2545 64 31 64H34.8848C34.8435 64.9759 34.8273 65.9688 34.5781 66.6816C34.2361 67.6603 33.6802 68.4263 32.4863 69.1426C32.299 69.2551 32.1536 69.4259 32.0726 69.6289C31.9915 69.8319 31.9791 70.0558 32.0374 70.2665C32.0956 70.4771 32.2213 70.6629 32.3951 70.7954C32.569 70.9278 32.7814 70.9997 33 71C36.8238 71 41.3093 69.2295 43.5723 64H62C64.7455 64 67 61.7455 67 59C69.7455 59 72 56.7455 72 54V33C72 30.2545 69.7455 28 67 28H36ZM36 30H67C68.6545 30 70 31.3455 70 33V54C70 55.6545 68.6545 57 67 57V38C67 35.2545 64.7455 33 62 33H33C33 31.3455 34.3455 30 36 30ZM31 35H62C63.6545 35 65 36.3455 65 38V59C65 60.6545 63.6545 62 62 62H43C42.795 61.9999 42.595 62.0628 42.427 62.1802C42.2589 62.2976 42.131 62.4638 42.0605 62.6562C40.6831 66.4132 38.2718 68.0666 35.7148 68.6816C35.999 68.2463 36.301 67.8162 36.4668 67.3418C36.943 65.9794 37 64.5303 37 63C37 62.7348 36.8946 62.4805 36.7071 62.2929C36.5195 62.1054 36.2652 62 36 62H31C29.3455 62 28 60.6545 28 59V38C28 36.3455 29.3455 35 31 35Z" fill="#6EC8E6"/>
</svg>
