<svg width="156" height="140" viewBox="0 0 156 140" fill="none" xmlns="http://www.w3.org/2000/svg">
<path d="M0.0126953 0.659912V103.7H6.44012V7.09991H144.9V0.659912H0.0126953ZM12.8801 13.5399V116.58H86.9401V110.14H19.3201V103.637L60.5638 71.0219C63.897 73.9401 70.0603 79.2983 70.8401 79.9776C75.7456 84.2541 80.9529 85.3359 84.2861 85.3359C87.6193 85.3359 92.8267 84.2541 97.7447 79.9776C101.556 76.6569 139.039 43.979 148.12 36.0673V90.8199L154.56 97.2599V13.5399H12.8801ZM19.3201 19.9799H148.12V27.5268C144.787 30.4323 97.6064 71.5628 93.5185 75.1224C89.9086 78.2669 86.2357 78.8959 84.2861 78.8959C82.3365 78.8959 78.6763 78.2544 75.0664 75.1224C70.8653 71.4622 20.7414 27.7784 19.3201 26.5331V19.9799ZM19.3201 35.0737C24.779 39.8408 40.9545 53.9409 55.6206 66.7202L19.3201 95.4235V35.0737ZM128.762 87.5622C127.454 87.5748 126.284 88.3672 125.781 89.5747C125.291 90.7948 125.58 92.1784 126.523 93.0966L143.567 110.14H99.8201V116.58H143.567L126.523 133.623C125.681 134.428 125.341 135.636 125.643 136.755C125.932 137.887 126.813 138.768 127.945 139.057C129.064 139.359 130.272 139.019 131.077 138.177L155.893 113.36L131.077 88.5433C130.473 87.9144 129.643 87.5748 128.762 87.5622Z" fill="#1C84A7"/>
</svg>
