<svg width="73" height="75" viewBox="0 0 73 75" fill="none" xmlns="http://www.w3.org/2000/svg">
<path d="M0.799805 0.0999756V64.7H17.7998V61.3H4.1998V3.49998H50.0998V6.89998H53.4998V0.0999756H0.799805ZM21.1998 10.3V74.9H72.1998V73.2V10.3H21.1998ZM24.5998 13.7H68.7998V71.5H24.5998V13.7ZM34.7998 27.3C32.9416 27.3 31.3998 28.8418 31.3998 30.7C31.3998 38.6303 33.041 44.9451 38.6979 50.6019C38.7845 50.6884 38.8802 50.7652 38.9834 50.831C44.5695 56.2678 50.7986 57.9 58.5998 57.9C60.458 57.9 61.9998 56.3582 61.9998 54.5V49.4C61.9998 47.5459 60.4613 46 58.6031 46C56.2138 45.9983 51.1623 46 51.1623 46C50.8804 46 50.603 46.0701 50.3549 46.204C50.1068 46.3379 49.8959 46.5313 49.7412 46.767L46.318 51.9832C44.5326 51.0458 42.8012 49.8975 41.1018 48.198C39.4023 46.4985 38.254 44.7672 37.3166 42.9818L42.5328 39.5586C42.7684 39.4038 42.9619 39.193 43.0958 38.9449C43.2297 38.6968 43.2998 38.4194 43.2998 38.1375C43.2998 38.1375 43.3015 33.086 43.2998 30.6967C43.2998 28.8405 41.7539 27.3 39.8998 27.3H34.7998ZM34.7998 30.7H39.8998C39.9013 32.7916 39.9001 36.2326 39.8998 37.2211L35.942 39.8176C35.1263 37.147 34.7998 34.2177 34.7998 30.7ZM52.0787 49.4C53.0672 49.3997 56.5081 49.3985 58.5998 49.4V54.5C55.0821 54.5 52.1528 54.1735 49.4822 53.3578L52.0787 49.4Z" fill="#003844"/>
</svg>
