<svg width="141" height="141" viewBox="0 0 141 141" fill="none" xmlns="http://www.w3.org/2000/svg">
<path d="M45.12 8.45996C40.5901 8.45996 36.66 11.9846 36.66 16.5179V22.56H7.52367C3.45348 22.56 0 25.8404 0 29.9239V68.082V102.616C0 106.7 3.45348 109.98 7.52367 109.98H72.9234C71.2079 115.136 70.4493 121.163 70.5 128.949C70.5113 130.5 71.769 131.752 73.32 131.752C86.9716 131.752 95.3858 135.692 97.67 139.601C98.1776 140.47 99.1034 141 100.104 141C101.106 141 102.034 140.472 102.539 139.606C104.823 135.698 113.24 131.752 126.895 131.752C128.445 131.752 129.703 130.5 129.714 128.949C129.785 117.706 128.22 110.092 124.416 103.53L132.54 98.3695V110.834C131.327 111.685 130.524 113.093 130.524 114.684C130.524 115.157 130.526 116.594 132.904 120.037L135.222 123.402L137.547 120.043C139.927 116.594 139.926 115.157 139.926 114.684C139.926 113.217 139.235 111.917 138.18 111.054V94.7839L139.689 93.8255C140.53 93.2926 141.028 92.3563 140.995 91.358C140.963 90.3598 140.415 89.4581 139.54 88.9787L118.44 77.3682V29.9239C118.44 25.8404 114.987 22.56 110.916 22.56H81.78V16.5179C81.78 11.9846 77.8499 8.45996 73.32 8.45996H45.12ZM45.12 14.1H73.32C75.0223 14.1 76.14 15.2645 76.14 16.5179V22.56H42.3V16.5179C42.3 15.2645 43.4177 14.1 45.12 14.1ZM7.52367 28.2H39.0063C39.3109 28.2503 39.6216 28.2503 39.9261 28.2H78.4863C78.7909 28.2503 79.1016 28.2503 79.4061 28.2H110.916C112.046 28.2 112.8 28.9878 112.8 29.9239V74.2618L101.47 68.027C100.622 67.5588 99.5984 67.5588 98.7496 68.027L94.2552 70.5H8.46C6.75773 70.5 5.64 69.3354 5.64 68.082V29.9239C5.64 28.9878 6.39378 28.2 7.52367 28.2ZM59.22 50.76C57.7242 50.76 56.2896 51.3542 55.2319 52.4119C54.1742 53.4696 53.58 54.9041 53.58 56.4C53.58 57.8958 54.1742 59.3303 55.2319 60.388C56.2896 61.4457 57.7242 62.04 59.22 62.04C60.7158 62.04 62.1504 61.4457 63.2081 60.388C64.2658 59.3303 64.86 57.8958 64.86 56.4C64.86 54.9041 64.2658 53.4696 63.2081 52.4119C62.1504 51.3542 60.7158 50.76 59.22 50.76ZM100.11 73.722L132.645 91.6224L100.11 112.277L67.5754 91.6224L100.11 73.722ZM5.64 75.6387C6.53289 75.9453 7.47647 76.14 8.46 76.14H84.0107L60.6796 88.9787C59.8054 89.4581 59.251 90.3598 59.22 91.358C59.1862 92.3563 59.685 93.2926 60.5254 93.8255L75.793 103.525C75.6387 103.791 75.5103 104.07 75.3634 104.34H7.52367C6.39378 104.34 5.64 103.552 5.64 102.616V75.6387ZM80.5573 106.543L98.6009 117.999C99.0633 118.293 99.5827 118.44 100.11 118.44C100.637 118.44 101.157 118.293 101.619 117.999L119.657 106.549C122.536 111.642 123.877 117.634 124.058 126.167C113.463 126.585 104.811 129.358 100.104 133.757C95.3979 129.355 86.754 126.588 76.162 126.167C76.3397 117.62 77.678 111.625 80.5573 106.543Z" fill="#1C84A7"/>
</svg>
