<svg width="48" height="48" viewBox="0 0 64 64" fill="none" xmlns="http://www.w3.org/2000/svg">
<path fill-rule="evenodd" clip-rule="evenodd" d="M0 32C0 14.3269 14.3269 0 32 0C49.6731 0 64 14.3269 64 32C64 49.6731 49.6731 64 32 64C14.3269 64 0 49.6731 0 32ZM32 16C40.8 16 48 23.2 48 32C48 40 42.2 46.8 34.2 48V36.6H38L38.8 32H34.4V29C34.4 27.8 35 26.6 37 26.6H39V22.6C39 22.6 37.2 22.2 35.4 22.2C31.8 22.2 29.4 24.4 29.4 28.4V32H25.4V36.6H29.4V47.8C21.8 46.6 16 40 16 32C16 23.2 23.2 16 32 16Z" fill="#6EC8E6"/>
</svg>
