<svg width="64" height="64" viewBox="0 0 64 64" fill="none" xmlns="http://www.w3.org/2000/svg">
<path fill-rule="evenodd" clip-rule="evenodd" d="M0 32C0 14.3269 14.3269 0 32 0C49.6731 0 64 14.3269 64 32C64 49.6731 49.6731 64 32 64C14.3269 64 0 49.6731 0 32ZM16.4 26.6V48H23.2V26.6H16.4ZM16 19.8C16 22 17.6 23.6 19.8 23.6C22 23.6 23.6 22 23.6 19.8C23.6 17.6 22 16 19.8 16C17.8 16 16 17.6 16 19.8ZM41.2 48H47.6V34.8C47.6 28.2 43.6 26 39.8 26C36.4 26 34 28.2 33.4 29.6V26.6H27V48H33.8V36.6C33.8 33.6 35.8 32 37.8 32C39.8 32 41.2 33 41.2 36.4V48Z" fill="#6EC8E6"/>
</svg>
