<svg width="32" height="38" viewBox="0 0 32 38" fill="none" xmlns="http://www.w3.org/2000/svg">
<path d="M8.49967 0.666748C6.19967 0.666748 4.33301 2.53341 4.33301 4.83341V8.59643L7.2627 5.66675H24.7367L27.6663 8.59643V4.83341C27.6663 2.53341 25.7997 0.666748 23.4997 0.666748H8.49967ZM8.15462 9.48836L0.30957 17.3334L8.15462 25.1785L10.5114 22.8217L5.02311 17.3334L10.5114 11.8451L8.15462 9.48836ZM23.8447 9.48836L21.488 11.8451L26.9762 17.3334L21.488 22.8217L23.8447 25.1785L31.6898 17.3334L23.8447 9.48836ZM4.33301 26.0704V33.1667C4.33301 35.4667 6.19967 37.3334 8.49967 37.3334H23.4997C25.7997 37.3334 27.6663 35.4667 27.6663 33.1667V26.0704L24.7367 29.0001H7.2627L4.33301 26.0704ZM15.9997 30.4584C17.0363 30.4584 17.8747 31.2967 17.8747 32.3334C17.8747 33.3701 17.0363 34.2084 15.9997 34.2084C14.963 34.2084 14.1247 33.3701 14.1247 32.3334C14.1247 31.2967 14.963 30.4584 15.9997 30.4584Z" />
</svg>
