<svg width="40" height="40" viewBox="0 0 40 40" fill="none" xmlns="http://www.w3.org/2000/svg">
<path d="M12.4997 1.66675C10.1997 1.66675 8.33301 3.53341 8.33301 5.83341V9.59643L11.2627 6.66675H28.7367L31.6663 9.59643V5.83341C31.6663 3.53341 29.7997 1.66675 27.4997 1.66675H12.4997ZM12.1546 10.4884L4.30957 18.3334L12.1546 26.1785L14.5114 23.8217L9.02311 18.3334L14.5114 12.8451L12.1546 10.4884ZM27.8447 10.4884L25.488 12.8451L30.9762 18.3334L25.488 23.8217L27.8447 26.1785L35.6898 18.3334L27.8447 10.4884ZM8.33301 27.0704V34.1667C8.33301 36.4667 10.1997 38.3334 12.4997 38.3334H27.4997C29.7997 38.3334 31.6663 36.4667 31.6663 34.1667V27.0704L28.7367 30.0001H11.2627L8.33301 27.0704ZM19.9997 31.4584C21.0363 31.4584 21.8747 32.2967 21.8747 33.3334C21.8747 34.3701 21.0363 35.2084 19.9997 35.2084C18.963 35.2084 18.1247 34.3701 18.1247 33.3334C18.1247 32.2967 18.963 31.4584 19.9997 31.4584Z"/>
</svg>
