<svg width="149" height="149" viewBox="0 0 149 149" fill="none" xmlns="http://www.w3.org/2000/svg">
<path d="M32.6401 0.439941C23.7851 0.439941 16.5401 7.68494 16.5401 16.5399C16.5401 25.3949 23.7851 32.6399 32.6401 32.6399C41.4951 32.6399 48.7401 25.3949 48.7401 16.5399C48.7401 7.68494 41.4951 0.439941 32.6401 0.439941ZM87.3801 0.439941V6.87994H55.1801V13.3199H142.12V97.0399H58.4001V103.48H85.7701L68.0601 138.9H74.5001L90.6001 106.7L106.7 138.9H113.14L95.4301 103.48H145.34C147.114 103.48 148.56 102.033 148.56 100.26V10.0999C148.56 8.32643 147.114 6.87994 145.34 6.87994H93.8201V0.439941H87.3801ZM32.6401 6.87994C38.011 6.87994 42.3001 11.1691 42.3001 16.5399C42.3001 21.9108 38.011 26.1999 32.6401 26.1999C27.2692 26.1999 22.9801 21.9108 22.9801 16.5399C22.9801 11.1691 27.2692 6.87994 32.6401 6.87994ZM18.1501 35.8599C8.40205 35.8599 0.440097 43.8219 0.440097 53.5699V93.2162C0.42752 93.3545 0.42752 93.4803 0.440097 93.6187V93.8199C0.42752 94.1218 0.465255 94.4363 0.540722 94.7256C1.01869 99.5933 5.11916 103.48 10.1001 103.48C11.2321 103.48 12.3013 103.241 13.3201 102.876V137.29C13.3201 143.478 18.4017 148.56 24.5901 148.56C27.7346 148.56 30.5899 147.239 32.6401 145.139C34.6903 147.239 37.5456 148.56 40.6901 148.56C46.8785 148.56 51.9601 143.478 51.9601 137.29V55.1799H87.3801C92.6755 55.1799 97.0401 50.8153 97.0401 45.5199C97.0401 40.2874 92.7887 35.9731 87.5813 35.8599C87.5185 35.8599 87.443 35.8599 87.3801 35.8599H42.3001C41.0549 35.8474 39.9228 36.5517 39.382 37.6712L32.6401 51.1549L25.8982 37.6712C25.3574 36.5517 24.2253 35.8474 22.9801 35.8599H18.1501ZM18.1501 42.2999H20.9676L29.722 59.8087C30.2503 60.9407 31.3949 61.6702 32.6401 61.6702C33.8853 61.6702 35.0299 60.9407 35.5582 59.8087L44.3126 42.2999H87.3801C87.4807 42.2999 87.5813 42.2999 87.682 42.2999C89.3549 42.4509 90.6001 43.8093 90.6001 45.5199C90.6001 47.3438 89.2039 48.7399 87.3801 48.7399H48.7401C46.9666 48.7399 45.5201 50.1864 45.5201 51.9599V137.29C45.5201 139.994 43.3944 142.12 40.6901 142.12C38.1493 142.12 36.0991 140.258 35.8601 137.793V136.988C35.8601 136.887 35.8601 136.787 35.8601 136.686V103.48C35.8978 102.549 35.5205 101.656 34.8538 101.027C34.1746 100.386 33.2564 100.071 32.3382 100.159C32.1999 100.184 32.0615 100.222 31.9357 100.26C30.4389 100.6 29.3824 101.945 29.4201 103.48V136.686C29.4075 136.825 29.4075 136.95 29.4201 137.089V137.793C29.1811 140.258 27.1309 142.12 24.5901 142.12C21.8858 142.12 19.7601 139.994 19.7601 137.29V61.6199C19.7853 60.6263 19.345 59.6829 18.5778 59.054C17.8231 58.4251 16.8042 58.1861 15.8357 58.3999C14.3389 58.7395 13.2824 60.0854 13.3201 61.6199V93.3168C13.3201 93.4174 13.3201 93.5181 13.3201 93.6187V93.8199C13.3201 95.6438 11.9239 97.0399 10.1001 97.0399C8.35174 97.0399 6.98072 95.7444 6.8801 94.0212C6.8801 93.9583 6.8801 93.8828 6.8801 93.8199C6.90525 93.6187 6.90525 93.4174 6.8801 93.2162V53.5699C6.8801 47.306 11.8862 42.2999 18.1501 42.2999Z" fill="#1C84A7"/>
</svg>
