<svg width="21" height="20" viewBox="0 0 21 20" fill="none" xmlns="http://www.w3.org/2000/svg">
<path d="M14.5302 12.5786H13.6268L13.3067 12.2699C14.4273 10.9663 15.102 9.27387 15.102 7.43282C15.102 3.32762 11.7743 0 7.66915 0C3.56394 0 0.236328 3.32762 0.236328 7.43282C0.236328 11.538 3.56394 14.8656 7.66915 14.8656C9.5102 14.8656 11.2026 14.191 12.5062 13.0703L12.8149 13.3905V14.2939L18.5325 20L20.2363 18.2962L14.5302 12.5786ZM7.66915 12.5786C4.82181 12.5786 2.52335 10.2802 2.52335 7.43282C2.52335 4.58548 4.82181 2.28702 7.66915 2.28702C10.5165 2.28702 12.8149 4.58548 12.8149 7.43282C12.8149 10.2802 10.5165 12.5786 7.66915 12.5786Z" fill="#1C84A7"/>
</svg>
