<svg width="69" height="69" viewBox="0 0 69 69" fill="none" xmlns="http://www.w3.org/2000/svg">
<path d="M34.5001 0.5C15.7403 0.5 0.500102 15.7402 0.500102 34.5C0.493462 35.1109 0.812212 35.682 1.34346 35.9941C1.87471 36.2996 2.52549 36.2996 3.05674 35.9941C3.58799 35.682 3.90674 35.1109 3.9001 34.5C3.9001 17.5797 17.5798 3.9 34.5001 3.9C45.1185 3.9 54.4353 9.30547 59.9271 17.5H48.1001C47.4892 17.4934 46.9181 17.8121 46.606 18.3434C46.3005 18.8746 46.3005 19.5254 46.606 20.0566C46.9181 20.5879 47.4892 20.9066 48.1001 20.9H65.1001V3.9C65.1067 3.4418 64.9274 2.99688 64.6021 2.67149C64.2767 2.3461 63.8317 2.1668 63.3735 2.17344C62.4372 2.19336 61.6868 2.96367 61.7001 3.9V14.1199C55.4911 5.85234 45.6165 0.5 34.5001 0.5ZM66.7735 32.7734C65.8372 32.7934 65.0868 33.5637 65.1001 34.5C65.1001 51.4203 51.4204 65.1 34.5001 65.1C23.8817 65.1 14.5583 59.6945 9.07315 51.5H20.9001C21.511 51.5133 22.0821 51.1879 22.3942 50.6633C22.6997 50.132 22.6997 49.4746 22.3942 48.9434C22.0821 48.4188 21.511 48.0934 20.9001 48.1H6.35713C6.13799 48.0602 5.91885 48.0602 5.69971 48.1H3.9001V65.1C3.89346 65.7109 4.21221 66.282 4.74346 66.5941C5.27471 66.8996 5.92549 66.8996 6.45674 66.5941C6.98799 66.282 7.30674 65.7109 7.3001 65.1V54.8734C13.5024 63.141 23.3837 68.5 34.5001 68.5C53.2599 68.5 68.5001 53.2598 68.5001 34.5C68.5067 34.0418 68.3274 33.5969 68.0021 33.2715C67.6767 32.9461 67.2317 32.7668 66.7735 32.7734Z" fill="#003844"/>
</svg>
