<svg width="161" height="148" viewBox="0 0 161 148" fill="none" xmlns="http://www.w3.org/2000/svg">
<path d="M81.1218 0.00818232C79.7089 -0.0248155 78.2915 0.0414733 76.8763 0.216478C73.1025 0.683156 69.3606 1.90431 65.8695 3.92989C61.2517 6.60914 58.0662 10.5763 55.5845 14.9265L55.1628 14.6822L3.93101 102.942L4.3527 103.186C1.83469 107.528 0 112.296 0 117.666C0 133.871 13.1503 147.086 29.2753 147.086C40.0566 147.086 49.1176 140.906 54.1979 132.147L54.6196 132.391L80.5071 87.794L106.395 132.391C114.461 146.413 132.417 151.243 146.377 143.143C160.341 135.041 165.153 116.99 157.09 102.956V102.949L105.859 14.6966C100.568 5.48718 91.0119 0.239166 81.1218 0.00818232ZM80.986 7.32726C88.3942 7.48583 95.5258 11.4237 99.5189 18.3741L99.5261 18.3813V18.3885L150.758 106.648C156.831 117.237 153.251 130.66 142.717 136.772C132.178 142.887 118.812 139.29 112.727 128.699L112.72 128.692L61.4953 40.4391V40.4319L61.4882 40.4247C55.415 29.8362 58.9946 16.413 69.5289 10.3009C72.1636 8.77213 74.975 7.84942 77.8055 7.49246C78.8669 7.3586 79.9277 7.30461 80.986 7.32726ZM52.0109 34.7074C52.5967 37.921 53.441 41.1321 55.1557 44.1166V44.1238L76.2688 80.4965L57.5572 112.732C55.1317 98.9567 43.6609 88.2465 29.2753 88.2465C25.9254 88.2465 22.8213 89.1224 19.8194 90.1714L52.0109 34.7074ZM29.2753 95.6015C41.4449 95.6015 51.2318 105.437 51.2318 117.666C51.2318 129.896 41.4449 139.731 29.2753 139.731C17.1057 139.731 7.31883 129.896 7.31883 117.666C7.31883 105.437 17.1057 95.6015 29.2753 95.6015Z" fill="#186E8B"/>
</svg>
