<svg width="25" height="25" viewBox="0 0 25 25" fill="none" xmlns="http://www.w3.org/2000/svg">
<path d="M17.5 16.1195C16.8667 16.1195 16.3 16.383 15.8667 16.7959L9.925 13.1501C9.96667 12.948 10 12.746 10 12.5351C10 12.3243 9.96667 12.1222 9.925 11.9202L15.8 8.30949C16.25 8.74874 16.8417 9.02108 17.5 9.02108C18.8833 9.02108 20 7.84388 20 6.38554C20 4.92721 18.8833 3.75 17.5 3.75C16.1167 3.75 15 4.92721 15 6.38554C15 6.59639 15.0333 6.79844 15.075 7.0005L9.2 10.6112C8.75 10.1719 8.15833 9.8996 7.5 9.8996C6.11667 9.8996 5 11.0768 5 12.5351C5 13.9935 6.11667 15.1707 7.5 15.1707C8.15833 15.1707 8.75 14.8983 9.2 14.4591L15.1333 18.1137C15.0917 18.2982 15.0667 18.4915 15.0667 18.6847C15.0667 20.0991 16.1583 21.25 17.5 21.25C18.8417 21.25 19.9333 20.0991 19.9333 18.6847C19.9333 17.2703 18.8417 16.1195 17.5 16.1195Z" fill="#6EC8E6"/>
</svg>
