<svg width="64" height="64" viewBox="0 0 64 64" fill="none" xmlns="http://www.w3.org/2000/svg">
<path fill-rule="evenodd" clip-rule="evenodd" d="M0 32C0 14.3269 14.3269 0 32 0C49.6731 0 64 14.3269 64 32C64 49.6731 49.6731 64 32 64C14.3269 64 0 49.6731 0 32ZM44.2 23C45.6 22.8 46.8 22.6 48 22C47.2 23.4 46 24.6 44.6 25.4C45 34.8 38.2 45 26 45C22.4 45 19 43.8 16 42C19.4 42.4 23 41.4 25.4 39.6C22.4 39.6 20 37.6 19.2 35C20.2 35.2 21.2 35 22.2 34.8C19.2 34 17 31.2 17 28.2C18 28.6 19 29 20 29C17.2 27 16.2 23.2 18 20.2C21.4 24.2 26.2 26.8 31.6 27C30.6 23 33.8 19 38 19C39.8 19 41.6 19.8 42.8 21C44.4 20.6 45.8 20.2 47 19.4C46.6 21 45.6 22.2 44.2 23Z" fill="#6EC8E6"/>
</svg>
