<svg width="47" height="46" viewBox="0 0 47 46" fill="none" xmlns="http://www.w3.org/2000/svg">
<path d="M23.1533 0C10.4626 0 0.15332 10.3093 0.15332 23C0.15332 35.6907 10.4626 46 23.1533 46C35.844 46 46.1533 35.6907 46.1533 23C46.1533 10.3093 35.844 0 23.1533 0ZM22.1533 2.11719V10.9785H14.9971C15.3748 9.86428 15.8016 8.82847 16.2705 7.89062C17.9162 4.59927 20.0015 2.59565 22.1533 2.11719ZM24.1533 2.11719C26.3052 2.59565 28.3905 4.59927 30.0361 7.89062C30.5051 8.82847 30.9318 9.86428 31.3096 10.9785H24.1533V2.11719ZM17.335 2.82031C16.2571 3.95203 15.2961 5.36685 14.4814 6.99609C13.8778 8.20341 13.3545 9.54605 12.9014 10.9785H5.94238C8.6622 7.08924 12.6579 4.16365 17.335 2.82031ZM28.9717 2.82031C33.6488 4.16365 37.6444 7.08924 40.3643 10.9785H33.4053C32.9521 9.54605 32.4289 8.20341 31.8252 6.99609C31.0106 5.36685 30.0495 3.95203 28.9717 2.82031ZM4.66699 13.0215H12.3271C11.6486 15.7599 11.2545 18.7951 11.1826 22H2.18457C2.33651 18.7607 3.21304 15.7127 4.66699 13.0215ZM14.3916 13.0215H22.1533V22H13.1846C13.2612 18.763 13.6837 15.7103 14.3916 13.0215ZM24.1533 13.0215H31.915C32.6229 15.7103 33.0454 18.763 33.1221 22H24.1533V13.0215ZM33.9795 13.0215H41.6396C43.0936 15.7127 43.9701 18.7607 44.1221 22H35.124C35.0522 18.7951 34.6581 15.7599 33.9795 13.0215ZM2.19434 24H11.1787C11.2488 27.2078 11.6484 30.2393 12.3271 32.9785H4.66895C3.21448 30.2884 2.34649 27.2391 2.19434 24ZM13.1787 24H22.1533V32.9785H14.3916C13.6835 30.2886 13.2541 27.2396 13.1787 24ZM24.1533 24H33.1279C33.0525 27.2396 32.6232 30.2886 31.915 32.9785H24.1533V24ZM35.1279 24H44.1123C43.9601 27.2391 43.0922 30.2884 41.6377 32.9785H33.9795C34.6583 30.2393 35.0579 27.2078 35.1279 24ZM5.94824 35.0215H12.9014C13.3545 36.454 13.8778 37.7966 14.4814 39.0039C15.2961 40.6332 16.2571 42.048 17.335 43.1797C12.6595 41.8368 8.66853 38.9073 5.94824 35.0215ZM14.9971 35.0215H22.1533V43.8828C20.0015 43.4043 17.9162 41.4007 16.2705 38.1094C15.8016 37.1715 15.3748 36.1357 14.9971 35.0215ZM24.1533 35.0215H31.3096C30.9318 36.1357 30.5051 37.1715 30.0361 38.1094C28.3905 41.4007 26.3052 43.4043 24.1533 43.8828V35.0215ZM33.4053 35.0215H40.3584C37.6381 38.9073 33.6471 41.8368 28.9717 43.1797C30.0495 42.048 31.0106 40.6332 31.8252 39.0039C32.4289 37.7966 32.9521 36.454 33.4053 35.0215Z" fill="#003844"/>
</svg>
