<svg width="141" height="141" viewBox="0 0 141 141" fill="none" xmlns="http://www.w3.org/2000/svg">
<path d="M64.8601 0C44.4812 0 29.4559 7.03898 19.7401 18.0656C10.0244 29.0923 5.64014 43.8752 5.64014 59.22C5.64014 71.6456 9.51764 83.2341 16.0389 92.7075C21.9433 101.3 25.3801 111.412 25.3801 121.789V141H31.0201V121.789C31.0201 110.266 27.1867 99.1076 20.7976 89.7113L20.6214 89.4469C14.728 80.8767 11.2801 70.478 11.2801 59.22C11.2801 44.9548 15.3559 31.5377 23.9701 21.7669C32.5844 11.996 45.759 5.64 64.8601 5.64C84.0383 5.64 96.486 11.2029 104.693 19.74C112.899 28.2771 116.931 40.0638 118.44 52.7869L118.528 53.4037L118.793 53.8444L132.1 76.6687H132.011C132.716 77.9355 132.364 79.1583 131.13 79.8412V79.9294L118.44 86.2744V103.194C118.44 113.747 109.738 121.976 99.2289 120.996H99.1408L90.4164 120.379L87.4201 120.202V141H93.0601V126.195L98.7001 126.636C98.7332 126.636 98.7552 126.636 98.7883 126.636C112.492 127.858 124.08 116.865 124.08 103.194V89.7113L133.774 84.8644H133.862L133.95 84.7762C137.795 82.6392 139.061 77.7483 136.946 73.9369V73.8487L123.904 51.2887C122.23 38.081 117.9 25.391 108.746 15.8625C99.3941 6.1357 85.1619 0 64.8601 0ZM55.4308 16.92L54.9901 19.2994L53.5801 27.6712C52.2693 28.0678 51.0025 28.6186 49.7908 29.2575L42.8289 24.2344L40.8901 22.8244L39.2158 24.4987L33.2233 30.4031L31.5489 32.1656L32.9589 34.1044L37.982 41.0662C37.3872 42.2119 36.8584 43.4787 36.3958 44.8556L27.6714 46.6181L25.3801 47.0588V60.1894L27.7595 60.63L36.1314 62.04C36.594 63.417 37.1228 64.6837 37.7176 65.8294L32.6945 72.7912L31.2845 74.73L32.9589 76.4044L38.8633 82.3969L40.6258 84.0713L42.5645 82.6612L49.5264 77.6381C50.672 78.233 51.9388 78.7617 53.3158 79.2244L54.7258 87.5962L55.1664 89.9756H68.3851L68.7376 87.5962L70.2358 78.96C71.5576 78.4863 72.8244 77.9686 74.0251 77.3737L81.2514 82.3969L83.1901 83.7188L84.8645 82.0444L90.857 76.14L92.5314 74.4656L91.1214 72.5269L86.0983 65.565C86.6821 64.4414 87.2219 63.2077 87.6845 61.8637L96.2326 60.63L98.7001 60.2775V46.9706L96.3208 46.53L87.6845 45.12C87.2769 43.8422 86.7592 42.5423 86.0983 41.2425L91.1214 34.0163L92.5314 32.0775L90.857 30.4031L84.8645 24.4987L83.1901 22.8244L81.2514 24.2344L74.2895 29.2575C73.1439 28.6627 71.8771 28.1339 70.5001 27.6712L69.0901 19.2994L68.6495 16.92H55.4308ZM60.1895 22.56H63.8908L65.2126 30.0506L65.477 31.9894L67.3276 32.3419C69.4316 32.8045 71.4475 33.829 73.3201 34.8975L74.9064 35.7787L76.4045 34.7212L82.6614 30.2269L85.1289 32.7825L80.6345 39.3037L79.4889 40.8019L80.5464 42.3881C81.7801 44.3599 82.5072 46.3427 83.0139 48.3806L83.4545 50.1431L85.3051 50.4075L93.0601 51.7294V55.3425L83.3664 56.6644L83.0139 58.6031C82.5512 60.7071 81.5268 62.723 80.4583 64.5956L79.577 66.1819L80.6345 67.68L85.1289 73.8487L82.5733 76.4044L76.052 71.8219L74.7301 70.8525L73.1439 71.6456C70.8857 72.7692 68.8037 73.8377 66.9751 74.2894L65.2126 74.73L64.8601 76.4925L63.5383 84.3356H59.9251L58.6033 76.7569L58.3389 74.9062L56.4883 74.5537C54.3843 74.0911 52.3684 73.0666 50.4958 71.9981L48.9095 71.1169L47.4114 72.1744L41.2426 76.6687L38.687 74.2012L43.1814 67.9444L44.2389 66.4463L43.3576 64.86C42.2891 62.9873 41.2647 60.9715 40.802 58.8675L40.4495 57.0169L38.5108 56.7525L31.0201 55.4306V51.6413L38.8633 50.1431L40.7139 49.7906L41.0664 48.0281C41.529 45.9241 42.5535 43.9083 43.622 42.0356L44.5033 40.4494L43.4458 38.9512L38.9514 32.7825L41.4189 30.2269L47.6758 34.7212L49.3501 35.8669L51.0245 34.7212C52.6108 33.5866 54.4504 32.8486 56.7526 32.3419L58.6033 31.9894L58.8676 30.0506L60.1895 22.56ZM62.0401 39.48C54.2962 39.48 47.9401 45.836 47.9401 53.58C47.9401 61.324 54.2962 67.68 62.0401 67.68C69.7841 67.68 76.1401 61.324 76.1401 53.58C76.1401 45.836 69.7841 39.48 62.0401 39.48ZM62.0401 45.12C66.7108 45.12 70.5001 48.9094 70.5001 53.58C70.5001 58.2506 66.7108 62.04 62.0401 62.04C57.3695 62.04 53.5801 58.2506 53.5801 53.58C53.5801 48.9094 57.3695 45.12 62.0401 45.12Z" fill="#1C84A7"/>
</svg>
